<?xml version="1.0" encoding="UTF-8"?>
<!DOCTYPE svg PUBLIC "-//W3C//DTD SVG 1.1//EN" "http://www.w3.org/Graphics/SVG/1.1/DTD/svg11.dtd">
<svg xmlns="http://www.w3.org/2000/svg" version="1.1" width="612px" height="408px" style="shape-rendering:geometricPrecision; text-rendering:geometricPrecision; image-rendering:optimizeQuality; fill-rule:evenodd; clip-rule:evenodd" xmlns:xlink="http://www.w3.org/1999/xlink">
<g><path style="opacity:1" fill="#6e5978" d="M 423.5,43.5 C 414.464,42.8352 406.13,44.8352 398.5,49.5C 397.667,50.5 396.833,51.5 396,52.5C 395.501,58.4908 395.334,64.4908 395.5,70.5C 394.968,64.5392 393.968,58.5392 392.5,52.5C 394.342,47.1591 398.009,43.6591 403.5,42C 406.785,41.1764 410.118,40.6764 413.5,40.5C 417.294,40.3229 420.627,41.3229 423.5,43.5 Z"/></g>
<g><path style="opacity:1" fill="#452d50" d="M 423.5,43.5 C 427.68,45.5424 431.68,47.8758 435.5,50.5C 435.427,52.0269 436.094,53.0269 437.5,53.5C 438.833,58.1667 438.833,62.8333 437.5,67.5C 434.024,68.8537 430.857,70.8537 428,73.5C 425.322,70.786 423.155,67.786 421.5,64.5C 421.087,62.1099 420.421,59.7765 419.5,57.5C 412.874,60.4204 406.041,61.0871 399,59.5C 397.97,59.8361 397.47,60.5028 397.5,61.5C 397.666,65.5138 397.499,69.5138 397,73.5C 396.722,72.5842 396.222,71.9175 395.5,71.5C 395.5,71.1667 395.5,70.8333 395.5,70.5C 395.334,64.4908 395.501,58.4908 396,52.5C 396.833,51.5 397.667,50.5 398.5,49.5C 406.13,44.8352 414.464,42.8352 423.5,43.5 Z"/></g>
<g><path style="opacity:0.459" fill="#ada0af" d="M 435.5,50.5 C 436.906,50.9731 437.573,51.9731 437.5,53.5C 436.094,53.0269 435.427,52.0269 435.5,50.5 Z"/></g>
<g><path style="opacity:1" fill="#472c4c" d="M 204.5,56.5 C 208.514,56.3345 212.514,56.5012 216.5,57C 222.636,59.3272 228.969,60.8272 235.5,61.5C 235.586,62.4959 235.252,63.3292 234.5,64C 235.651,66.2003 237.318,67.7003 239.5,68.5C 241.082,73.9932 240.415,79.3265 237.5,84.5C 237.5,85.1667 237.167,85.5 236.5,85.5C 236.5,84.8333 236.167,84.5 235.5,84.5C 235.5,84.1667 235.5,83.8333 235.5,83.5C 235.784,81.5853 235.451,79.9187 234.5,78.5C 233.974,76.7697 232.974,75.4363 231.5,74.5C 229.252,70.7457 226.419,67.4124 223,64.5C 219.687,70.6421 215.187,75.6421 209.5,79.5C 206.268,79.7717 204.268,81.4384 203.5,84.5C 203.5,85.1667 203.5,85.8333 203.5,86.5C 200.805,82.9894 197.138,81.6561 192.5,82.5C 192.151,76.655 192.984,70.9883 195,65.5C 195.377,64.0577 196.21,63.0577 197.5,62.5C 198.833,61.8333 199.833,60.8333 200.5,59.5C 201.262,57.7376 202.596,56.7376 204.5,56.5 Z"/></g>
<g><path style="opacity:1" fill="#684c6b" d="M 235.5,61.5 C 228.969,60.8272 222.636,59.3272 216.5,57C 212.514,56.5012 208.514,56.3345 204.5,56.5C 207.133,54.7497 210.133,53.7497 213.5,53.5C 218.43,54.7413 223.43,55.5746 228.5,56C 231.595,56.9354 233.929,58.7687 235.5,61.5 Z"/></g>
<g><path style="opacity:0.788" fill="#988b99" d="M 200.5,59.5 C 199.833,60.8333 198.833,61.8333 197.5,62.5C 197.5,60.5 198.5,59.5 200.5,59.5 Z"/></g>
<g><path style="opacity:1" fill="#ea9a9b" d="M 421.5,64.5 C 420.341,63.5442 419.174,62.5442 418,61.5C 411.155,62.8123 404.321,62.8123 397.5,61.5C 397.47,60.5028 397.97,59.8361 399,59.5C 406.041,61.0871 412.874,60.4204 419.5,57.5C 420.421,59.7765 421.087,62.1099 421.5,64.5 Z"/></g>
<g><path style="opacity:1" fill="#f6bba9" d="M 397.5,61.5 C 404.321,62.8123 411.155,62.8123 418,61.5C 419.174,62.5442 420.341,63.5442 421.5,64.5C 423.155,67.786 425.322,70.786 428,73.5C 430.857,70.8537 434.024,68.8537 437.5,67.5C 438.3,69.6073 438.967,71.7739 439.5,74C 439.532,75.9711 438.698,77.4711 437,78.5C 436.817,81.3647 436.317,84.0314 435.5,86.5C 435.5,84.1667 435.5,81.8333 435.5,79.5C 432.68,79.087 430.68,80.087 429.5,82.5C 425.709,88.0666 420.375,91.0666 413.5,91.5C 413.5,93.1667 413.5,94.8333 413.5,96.5C 416.745,96.1199 419.745,94.9532 422.5,93C 424.966,90.5214 427.299,88.0214 429.5,85.5C 429.263,86.791 429.596,87.791 430.5,88.5C 430.316,93.6322 432.649,96.6322 437.5,97.5C 433.077,97.7445 430.244,100.078 429,104.5C 426.131,107.704 422.965,110.537 419.5,113C 414.982,113.33 412.315,111.163 411.5,106.5C 411.5,104.5 411.5,102.5 411.5,100.5C 412.265,97.9039 412.599,95.2372 412.5,92.5C 406.275,92.2218 401.942,89.2218 399.5,83.5C 392.831,80.8975 391.498,76.8975 395.5,71.5C 396.222,71.9175 396.722,72.5842 397,73.5C 397.499,69.5138 397.666,65.5138 397.5,61.5 Z"/></g>
<g><path style="opacity:1" fill="#7b647e" d="M 235.5,61.5 C 237.588,63.3356 238.921,65.6689 239.5,68.5C 237.318,67.7003 235.651,66.2003 234.5,64C 235.252,63.3292 235.586,62.4959 235.5,61.5 Z"/></g>
<g><path style="opacity:1" fill="#825a69" d="M 399.5,66.5 C 404.696,66.5649 404.696,67.2316 399.5,68.5C 398.537,68.0302 398.537,67.3635 399.5,66.5 Z"/></g>
<g><path style="opacity:1" fill="#e49898" d="M 231.5,74.5 C 228.889,73.0661 226.389,71.3994 224,69.5C 220.227,72.5934 216.394,75.7601 212.5,79C 211.552,79.4828 210.552,79.6495 209.5,79.5C 215.187,75.6421 219.687,70.6421 223,64.5C 226.419,67.4124 229.252,70.7457 231.5,74.5 Z"/></g>
<g><path style="opacity:1" fill="#f4b8a6" d="M 231.5,74.5 C 232.974,75.4363 233.974,76.7697 234.5,78.5C 234.631,79.3764 234.298,80.0431 233.5,80.5C 231.065,78.9479 229.065,79.2812 227.5,81.5C 227.389,82.1174 227.056,82.6174 226.5,83C 223.112,83.6588 219.779,83.4922 216.5,82.5C 215.399,81.4017 214.066,81.235 212.5,82C 210.731,83.0641 209.064,84.2308 207.5,85.5C 206.151,85.1543 204.817,84.821 203.5,84.5C 204.268,81.4384 206.268,79.7717 209.5,79.5C 210.552,79.6495 211.552,79.4828 212.5,79C 216.394,75.7601 220.227,72.5934 224,69.5C 226.389,71.3994 228.889,73.0661 231.5,74.5 Z"/></g>
<g><path style="opacity:1" fill="#5e5455" d="M 415.5,73.5 C 417.337,73.6395 417.67,74.3061 416.5,75.5C 415.702,75.0431 415.369,74.3764 415.5,73.5 Z"/></g>
<g><path style="opacity:1" fill="#4b3354" d="M 435.5,86.5 C 434.365,88.2132 432.698,88.8799 430.5,88.5C 429.596,87.791 429.263,86.791 429.5,85.5C 429.5,84.5 429.5,83.5 429.5,82.5C 430.68,80.087 432.68,79.087 435.5,79.5C 435.5,81.8333 435.5,84.1667 435.5,86.5 Z"/></g>
<g><path style="opacity:1" fill="#a67b7e" d="M 234.5,78.5 C 235.451,79.9187 235.784,81.5853 235.5,83.5C 234.833,83.1667 234.167,82.8333 233.5,82.5C 231.735,81.5386 229.735,81.2053 227.5,81.5C 229.065,79.2812 231.065,78.9479 233.5,80.5C 234.298,80.0431 234.631,79.3764 234.5,78.5 Z"/></g>
<g><path style="opacity:1" fill="#f6b9a8" d="M 192.5,82.5 C 197.138,81.6561 200.805,82.9894 203.5,86.5C 205.167,86.5 206.833,86.5 208.5,86.5C 208.229,88.3797 208.896,89.713 210.5,90.5C 213.37,94.3694 216.537,94.3694 220,90.5C 220.495,88.5273 220.662,86.5273 220.5,84.5C 222.167,84.5 223.833,84.5 225.5,84.5C 225.382,92.6178 228.882,94.6178 236,90.5C 236.494,88.8659 236.66,87.1992 236.5,85.5C 237.167,85.5 237.5,85.1667 237.5,84.5C 239.478,85.3171 240.478,86.8171 240.5,89C 238.999,91.9846 237.332,94.818 235.5,97.5C 235.719,96.325 235.386,95.325 234.5,94.5C 232.536,97.5697 230.202,100.403 227.5,103C 225.091,104.707 222.425,105.54 219.5,105.5C 214.636,105.324 210.302,103.657 206.5,100.5C 204.334,98.1633 202.334,95.6633 200.5,93C 198.134,92.5604 195.801,92.0604 193.5,91.5C 190.066,88.7858 189.733,85.7858 192.5,82.5 Z"/></g>
<g><path style="opacity:1" fill="#f4bba9" d="M 233.5,82.5 C 234.167,82.8333 234.833,83.1667 235.5,83.5C 235.5,83.8333 235.5,84.1667 235.5,84.5C 235.669,91.4863 232.836,93.153 227,89.5C 225.833,84.1647 228,81.8314 233.5,82.5 Z"/></g>
<g><path style="opacity:1" fill="#f1b9a6" d="M 216.5,82.5 C 221.199,89.8176 219.199,92.4842 210.5,90.5C 209.138,85.2128 211.138,82.5461 216.5,82.5 Z"/></g>
<g><path style="opacity:1" fill="#f9e4db" d="M 227.5,81.5 C 229.735,81.2053 231.735,81.5386 233.5,82.5C 228,81.8314 225.833,84.1647 227,89.5C 232.836,93.153 235.669,91.4863 235.5,84.5C 236.167,84.5 236.5,84.8333 236.5,85.5C 236.66,87.1992 236.494,88.8659 236,90.5C 228.882,94.6178 225.382,92.6178 225.5,84.5C 223.833,84.5 222.167,84.5 220.5,84.5C 220.662,86.5273 220.495,88.5273 220,90.5C 216.537,94.3694 213.37,94.3694 210.5,90.5C 219.199,92.4842 221.199,89.8176 216.5,82.5C 219.779,83.4922 223.112,83.6588 226.5,83C 227.056,82.6174 227.389,82.1174 227.5,81.5 Z"/></g>
<g><path style="opacity:1" fill="#f8e3d9" d="M 216.5,82.5 C 211.138,82.5461 209.138,85.2128 210.5,90.5C 208.896,89.713 208.229,88.3797 208.5,86.5C 206.833,86.5 205.167,86.5 203.5,86.5C 203.5,85.8333 203.5,85.1667 203.5,84.5C 204.817,84.821 206.151,85.1543 207.5,85.5C 209.064,84.2308 210.731,83.0641 212.5,82C 214.066,81.235 215.399,81.4017 216.5,82.5 Z"/></g>
<g><path style="opacity:1" fill="#514d53" d="M 229.5,87.5 C 231.337,87.6395 231.67,88.3061 230.5,89.5C 229.702,89.0431 229.369,88.3764 229.5,87.5 Z"/></g>
<g><path style="opacity:1" fill="#ef9e9c" d="M 429.5,82.5 C 429.5,83.5 429.5,84.5 429.5,85.5C 427.299,88.0214 424.966,90.5214 422.5,93C 419.745,94.9532 416.745,96.1199 413.5,96.5C 413.5,94.8333 413.5,93.1667 413.5,91.5C 420.375,91.0666 425.709,88.0666 429.5,82.5 Z"/></g>
<g><path style="opacity:1" fill="#553b58" d="M 193.5,91.5 C 195.801,92.0604 198.134,92.5604 200.5,93C 202.334,95.6633 204.334,98.1633 206.5,100.5C 206.5,101.5 206.5,102.5 206.5,103.5C 206.204,105.403 205.537,107.07 204.5,108.5C 198.565,104.295 194.898,98.6287 193.5,91.5 Z"/></g>
<g><path style="opacity:1" fill="#442a4e" d="M 437.5,97.5 C 440.495,97.2938 443.162,97.9605 445.5,99.5C 442.26,102.967 439.76,106.967 438,111.5C 434.951,118.103 433.117,124.77 432.5,131.5C 431.585,135.269 429.918,138.602 427.5,141.5C 420.799,136.812 414.466,131.645 408.5,126C 405.464,123.994 402.131,123.16 398.5,123.5C 397.2,121.777 396.533,119.61 396.5,117C 396.382,113.31 397.049,109.81 398.5,106.5C 401.247,103.793 404.58,102.127 408.5,101.5C 410.028,102.802 411.028,104.469 411.5,106.5C 412.315,111.163 414.982,113.33 419.5,113C 422.965,110.537 426.131,107.704 429,104.5C 430.244,100.078 433.077,97.7445 437.5,97.5 Z"/></g>
<g><path style="opacity:1" fill="#5a3f63" d="M 445.5,99.5 C 451.073,100.572 454.573,103.905 456,109.5C 458.04,117.317 457.54,124.983 454.5,132.5C 452.871,134.858 451.705,137.524 451,140.5C 449.436,140.912 447.936,141.245 446.5,141.5C 446.586,140.504 446.252,139.671 445.5,139C 442.014,137.004 438.681,134.837 435.5,132.5C 434.609,131.89 433.609,131.557 432.5,131.5C 433.117,124.77 434.951,118.103 438,111.5C 439.76,106.967 442.26,102.967 445.5,99.5 Z"/></g>
<g><path style="opacity:1" fill="#553956" d="M 235.5,97.5 C 234.705,103.442 231.705,107.775 226.5,110.5C 225.167,110.5 224.5,111.167 224.5,112.5C 223.167,112.5 221.833,112.5 220.5,112.5C 220.5,117.167 220.5,121.833 220.5,126.5C 219.833,126.5 219.5,126.167 219.5,125.5C 219.5,120.167 219.5,114.833 219.5,109.5C 219.5,108.167 219.5,106.833 219.5,105.5C 222.425,105.54 225.091,104.707 227.5,103C 230.202,100.403 232.536,97.5697 234.5,94.5C 235.386,95.325 235.719,96.325 235.5,97.5 Z"/></g>
<g><path style="opacity:1" fill="#856475" d="M 408.5,101.5 C 409.209,100.596 410.209,100.263 411.5,100.5C 411.5,102.5 411.5,104.5 411.5,106.5C 411.028,104.469 410.028,102.802 408.5,101.5 Z"/></g>
<g><path style="opacity:1" fill="#ef9d9c" d="M 206.5,100.5 C 210.302,103.657 214.636,105.324 219.5,105.5C 219.5,106.833 219.5,108.167 219.5,109.5C 217.801,109.66 216.134,109.494 214.5,109C 211.953,106.946 209.286,105.113 206.5,103.5C 206.5,102.5 206.5,101.5 206.5,100.5 Z"/></g>
<g><path style="opacity:1" fill="#fabfaa" d="M 206.5,103.5 C 209.286,105.113 211.953,106.946 214.5,109C 216.134,109.494 217.801,109.66 219.5,109.5C 219.5,114.833 219.5,120.167 219.5,125.5C 212.764,127.383 207.93,125.05 205,118.5C 203.589,116.35 202.755,114.016 202.5,111.5C 203.167,110.5 203.833,109.5 204.5,108.5C 205.537,107.07 206.204,105.403 206.5,103.5 Z"/></g>
<g><path style="opacity:0.275" fill="#c9c0ca" d="M 226.5,110.5 C 226.5,111.167 226.5,111.833 226.5,112.5C 225.833,112.5 225.167,112.5 224.5,112.5C 224.5,111.167 225.167,110.5 226.5,110.5 Z"/></g>
<g><path style="opacity:1" fill="#432848" d="M 224.5,112.5 C 225.167,112.5 225.833,112.5 226.5,112.5C 231.647,119.267 234.647,126.934 235.5,135.5C 231.963,135.311 228.63,135.977 225.5,137.5C 225.573,135.973 224.906,134.973 223.5,134.5C 221.94,132.046 220.94,129.38 220.5,126.5C 220.5,121.833 220.5,117.167 220.5,112.5C 221.833,112.5 223.167,112.5 224.5,112.5 Z"/></g>
<g><path style="opacity:1" fill="#5e4467" d="M 398.5,106.5 C 397.049,109.81 396.382,113.31 396.5,117C 396.533,119.61 397.2,121.777 398.5,123.5C 397.791,124.404 396.791,124.737 395.5,124.5C 393.692,123.093 391.692,121.926 389.5,121C 390.252,120.329 390.586,119.496 390.5,118.5C 392.178,113.803 394.844,109.803 398.5,106.5 Z"/></g>
<g><path style="opacity:0.992" fill="#f5f0ec" d="M 193.5,113.5 C 195.417,120.077 197.083,126.743 198.5,133.5C 196.466,143.705 195.966,154.038 197,164.5C 203.493,165.381 209.66,166.714 215.5,168.5C 215.5,172.833 215.5,177.167 215.5,181.5C 208.352,182.492 201.019,182.825 193.5,182.5C 191.517,182.157 190.183,182.824 189.5,184.5C 187.958,183.699 186.292,183.366 184.5,183.5C 184.629,185.216 184.962,186.883 185.5,188.5C 183.5,188.5 181.5,188.5 179.5,188.5C 176.833,188.5 174.167,188.5 171.5,188.5C 166.305,188.821 161.305,188.487 156.5,187.5C 157.5,187.5 158.5,187.5 159.5,187.5C 167.167,187.5 174.833,187.5 182.5,187.5C 181.996,183.5 180.663,179.834 178.5,176.5C 179.376,176.631 180.043,176.298 180.5,175.5C 179.82,174.14 179.153,172.807 178.5,171.5C 178.316,165.802 178.65,159.968 179.5,154C 178.756,152.961 177.756,152.461 176.5,152.5C 177.261,151.609 178.261,150.942 179.5,150.5C 180.258,142.302 181.258,134.135 182.5,126C 182.046,124.061 181.379,122.228 180.5,120.5C 181.15,120.804 181.817,121.137 182.5,121.5C 185.308,117.601 188.974,114.935 193.5,113.5 Z"/></g>
<g><path style="opacity:1" fill="#6c979a" d="M 386.5,118.5 C 384.508,118.672 382.842,118.005 381.5,116.5C 375.737,126.431 368.07,134.597 358.5,141C 341.718,144.448 330.384,138.281 324.5,122.5C 326.596,118.889 328.263,115.055 329.5,111C 345.249,106.13 360.916,106.464 376.5,112C 380.069,113.942 383.402,116.108 386.5,118.5 Z"/></g>
<g><path style="opacity:1" fill="#5c8088" d="M 386.5,118.5 C 387.833,119.833 389.167,119.833 390.5,118.5C 390.586,119.496 390.252,120.329 389.5,121C 391.692,121.926 393.692,123.093 395.5,124.5C 392.558,126.779 390.891,129.779 390.5,133.5C 391.5,133.5 392.5,133.5 393.5,133.5C 393.639,138.39 395.139,138.723 398,134.5C 397.591,136.225 397.758,137.892 398.5,139.5C 403.547,135.348 404.213,135.682 400.5,140.5C 401,140.833 401.5,141.167 402,141.5C 408.23,138.19 412.73,139.857 415.5,146.5C 418.934,155.799 421.934,165.133 424.5,174.5C 425.426,179.666 425.426,184.666 424.5,189.5C 419.726,194.98 413.726,197.314 406.5,196.5C 405.21,195.942 404.377,194.942 404,193.5C 403.814,196.036 403.314,198.369 402.5,200.5C 401.596,188.21 399.096,176.21 395,164.5C 394.83,173.676 394.33,182.676 393.5,191.5C 393.666,181.828 393.5,172.161 393,162.5C 389.658,159.491 386.658,156.157 384,152.5C 383.383,153.449 383.549,154.282 384.5,155C 383.5,155.333 382.5,155.667 381.5,156C 383.703,168.977 379.37,179.643 368.5,188C 361.718,192.029 354.385,193.862 346.5,193.5C 338.332,193.124 330.332,191.791 322.5,189.5C 322.5,190.833 322.5,192.167 322.5,193.5C 321.5,191.5 320.5,189.5 319.5,187.5C 320.191,170.486 321.191,153.486 322.5,136.5C 319.663,137.503 316.997,138.836 314.5,140.5C 313.782,138.863 313.616,137.197 314,135.5C 316.437,138.149 317.77,137.483 318,133.5C 320.119,136.477 321.286,136.144 321.5,132.5C 321.514,130.389 320.848,128.555 319.5,127C 320.344,124.993 321.677,123.493 323.5,122.5C 323.833,122.5 324.167,122.5 324.5,122.5C 330.384,138.281 341.718,144.448 358.5,141C 368.07,134.597 375.737,126.431 381.5,116.5C 382.842,118.005 384.508,118.672 386.5,118.5 Z"/></g>
<g><path style="opacity:1" fill="#a0ccba" d="M 180.5,120.5 C 181.379,122.228 182.046,124.061 182.5,126C 181.258,134.135 180.258,142.302 179.5,150.5C 178.261,150.942 177.261,151.609 176.5,152.5C 175.306,153.272 174.306,154.272 173.5,155.5C 172.833,154.5 172.167,153.5 171.5,152.5C 170.728,151.306 169.728,150.306 168.5,149.5C 168.5,148.833 168.167,148.5 167.5,148.5C 167.672,147.508 167.338,146.842 166.5,146.5C 166.5,146.167 166.5,145.833 166.5,145.5C 166.672,144.508 166.338,143.842 165.5,143.5C 165.672,142.508 165.338,141.842 164.5,141.5C 164.167,141.5 163.833,141.5 163.5,141.5C 162.678,137.874 162.011,134.207 161.5,130.5C 163.796,122.315 165.296,113.981 166,105.5C 172.381,109.047 177.215,114.047 180.5,120.5 Z"/></g>
<g><path style="opacity:0.978" fill="#e9d5d3" d="M 232.5,115.5 C 238.968,120.106 241.968,126.439 241.5,134.5C 252.679,134.172 263.679,134.505 274.5,135.5C 261.833,135.5 249.167,135.5 236.5,135.5C 237.062,128.42 235.728,121.753 232.5,115.5 Z"/></g>
<g><path style="opacity:1" fill="#efebe7" d="M 202.5,111.5 C 202.755,114.016 203.589,116.35 205,118.5C 207.93,125.05 212.764,127.383 219.5,125.5C 219.5,126.167 219.833,126.5 220.5,126.5C 220.94,129.38 221.94,132.046 223.5,134.5C 217.322,135.817 210.988,135.817 204.5,134.5C 203.316,127.402 201.316,120.568 198.5,114C 197.552,113.517 196.552,113.351 195.5,113.5C 197.657,112.593 199.99,111.927 202.5,111.5 Z"/></g>
<g><path style="opacity:1" fill="#5d3f5f" d="M 226.5,112.5 C 228.784,112.975 230.784,113.975 232.5,115.5C 235.728,121.753 237.062,128.42 236.5,135.5C 236.167,135.5 235.833,135.5 235.5,135.5C 234.647,126.934 231.647,119.267 226.5,112.5 Z"/></g>
<g><path style="opacity:1" fill="#a2cebc" d="M 159.5,134.5 C 158.29,134.932 157.29,135.599 156.5,136.5C 146.661,138.901 138.494,136.234 132,128.5C 129.002,119.845 126.002,111.178 123,102.5C 120.404,98.0685 117.238,94.0685 113.5,90.5C 131.459,87.9042 145.625,93.9042 156,108.5C 160.339,116.75 161.506,125.417 159.5,134.5 Z"/></g>
<g><path style="opacity:1" fill="#f6bba8" d="M 398.5,123.5 C 402.131,123.16 405.464,123.994 408.5,126C 414.466,131.645 420.799,136.812 427.5,141.5C 429.918,138.602 431.585,135.269 432.5,131.5C 433.609,131.557 434.609,131.89 435.5,132.5C 438.129,136.797 441.463,140.463 445.5,143.5C 443.7,148.814 441.2,153.814 438,158.5C 434.118,162.341 430.285,162.175 426.5,158C 422.602,154.271 418.935,150.438 415.5,146.5C 412.73,139.857 408.23,138.19 402,141.5C 401.5,141.167 401,140.833 400.5,140.5C 404.213,135.682 403.547,135.348 398.5,139.5C 397.758,137.892 397.591,136.225 398,134.5C 395.139,138.723 393.639,138.39 393.5,133.5C 392.5,133.5 391.5,133.5 390.5,133.5C 390.891,129.779 392.558,126.779 395.5,124.5C 396.791,124.737 397.791,124.404 398.5,123.5 Z"/></g>
<g><path style="opacity:1" fill="#f3b9a7" d="M 323.5,122.5 C 321.677,123.493 320.344,124.993 319.5,127C 320.848,128.555 321.514,130.389 321.5,132.5C 321.286,136.144 320.119,136.477 318,133.5C 317.77,137.483 316.437,138.149 314,135.5C 313.616,137.197 313.782,138.863 314.5,140.5C 313.791,141.404 312.791,141.737 311.5,141.5C 311.5,142.5 311.5,143.5 311.5,144.5C 309.315,144.296 307.315,143.63 305.5,142.5C 304.409,139.728 303.409,136.895 302.5,134C 305.512,128.988 309.512,124.988 314.5,122C 317.507,121.699 320.507,121.865 323.5,122.5 Z"/></g>
<g><path style="opacity:1" fill="#5f8190" d="M 193.5,113.5 C 194.167,113.5 194.833,113.5 195.5,113.5C 196.552,113.351 197.552,113.517 198.5,114C 201.316,120.568 203.316,127.402 204.5,134.5C 210.988,135.817 217.322,135.817 223.5,134.5C 224.906,134.973 225.573,135.973 225.5,137.5C 218.768,140.958 217.268,145.958 221,152.5C 222.33,153.582 223.83,154.249 225.5,154.5C 220.109,156.604 217.776,160.604 218.5,166.5C 218.027,167.906 217.027,168.573 215.5,168.5C 209.66,166.714 203.493,165.381 197,164.5C 195.966,154.038 196.466,143.705 198.5,133.5C 197.083,126.743 195.417,120.077 193.5,113.5 Z"/></g>
<g><path style="opacity:1" fill="#547780" d="M 319.5,187.5 C 317.121,198.024 310.788,201.19 300.5,197C 298.671,196.727 297.171,195.893 296,194.5C 292.597,181.553 293.597,168.886 299,156.5C 300.942,151.623 303.108,146.956 305.5,142.5C 307.315,143.63 309.315,144.296 311.5,144.5C 311.5,143.5 311.5,142.5 311.5,141.5C 312.791,141.737 313.791,141.404 314.5,140.5C 316.997,138.836 319.663,137.503 322.5,136.5C 321.191,153.486 320.191,170.486 319.5,187.5 Z"/></g>
<g><path style="opacity:1" fill="#452b4f" d="M 454.5,132.5 C 455.475,142.751 455.808,153.085 455.5,163.5C 455.81,166.713 455.477,169.713 454.5,172.5C 444.482,173.072 434.482,173.739 424.5,174.5C 421.934,165.133 418.934,155.799 415.5,146.5C 418.935,150.438 422.602,154.271 426.5,158C 430.285,162.175 434.118,162.341 438,158.5C 441.2,153.814 443.7,148.814 445.5,143.5C 446.338,143.158 446.672,142.492 446.5,141.5C 447.936,141.245 449.436,140.912 451,140.5C 451.705,137.524 452.871,134.858 454.5,132.5 Z"/></g>
<g><path style="opacity:1" fill="#e79999" d="M 435.5,132.5 C 438.681,134.837 442.014,137.004 445.5,139C 446.252,139.671 446.586,140.504 446.5,141.5C 446.672,142.492 446.338,143.158 445.5,143.5C 441.463,140.463 438.129,136.797 435.5,132.5 Z"/></g>
<g><path style="opacity:0.463" fill="#c4d9d4" d="M 159.5,134.5 C 160.079,137.331 161.412,139.664 163.5,141.5C 163.833,142.833 164.167,142.833 164.5,141.5C 165.338,141.842 165.672,142.508 165.5,143.5C 166.338,143.842 166.672,144.508 166.5,145.5C 165.167,145.833 165.167,146.167 166.5,146.5C 166.328,147.492 166.662,148.158 167.5,148.5C 168.167,148.5 168.5,148.833 168.5,149.5C 168.795,151.423 169.628,153.09 171,154.5C 171.464,153.906 171.631,153.239 171.5,152.5C 172.167,153.5 172.833,154.5 173.5,155.5C 174.576,160.993 176.242,166.327 178.5,171.5C 179.153,172.807 179.82,174.14 180.5,175.5C 180.043,176.298 179.376,176.631 178.5,176.5C 176.883,175.962 175.216,175.629 173.5,175.5C 174.806,174.533 175.473,173.199 175.5,171.5C 176.833,170.833 176.833,170.167 175.5,169.5C 174.599,168.71 173.932,167.71 173.5,166.5C 174.833,166.167 174.833,165.833 173.5,165.5C 173.672,164.508 173.338,163.842 172.5,163.5C 168.784,153.471 163.45,144.471 156.5,136.5C 157.29,135.599 158.29,134.932 159.5,134.5 Z"/></g>
<g><path style="opacity:1" fill="#d44d56" d="M 235.5,135.5 C 235.833,135.5 236.167,135.5 236.5,135.5C 249.167,135.5 261.833,135.5 274.5,135.5C 278.182,135.335 281.848,135.501 285.5,136C 286.931,136.465 288.097,137.299 289,138.5C 288.925,142.223 289.092,145.89 289.5,149.5C 289.332,151.171 288.665,152.504 287.5,153.5C 266.866,153.268 246.199,153.602 225.5,154.5C 223.83,154.249 222.33,153.582 221,152.5C 217.268,145.958 218.768,140.958 225.5,137.5C 228.63,135.977 231.963,135.311 235.5,135.5 Z"/></g>
<g><path style="opacity:1" fill="#f3a279" d="M 287.5,153.5 C 288.7,156.969 288.7,160.302 287.5,163.5C 287.668,160.316 286.334,159.816 283.5,162C 271.457,162.865 259.457,162.532 247.5,161C 246.335,159.916 245.002,159.083 243.5,158.5C 242.708,161.973 241.708,165.306 240.5,168.5C 255.36,165.386 270.36,164.719 285.5,166.5C 286.713,166.253 287.38,165.586 287.5,164.5C 289.007,167.618 288.34,170.285 285.5,172.5C 284.709,170.944 284.376,169.61 284.5,168.5C 283.205,169.098 281.872,169.598 280.5,170C 261.136,170.796 241.802,170.63 222.5,169.5C 223.234,168.292 223.567,166.959 223.5,165.5C 221.784,165.629 220.117,165.962 218.5,166.5C 217.776,160.604 220.109,156.604 225.5,154.5C 246.199,153.602 266.866,153.268 287.5,153.5 Z"/></g>
<g><path style="opacity:1" fill="#527780" d="M 393.5,191.5 C 392.99,194.983 392.323,198.316 391.5,201.5C 391.663,199.143 391.497,196.81 391,194.5C 379.061,198.732 366.727,200.732 354,200.5C 343.979,201.543 334.479,199.876 325.5,195.5C 324.271,198.199 324.271,200.865 325.5,203.5C 324.25,203.423 323.417,202.756 323,201.5C 322.958,198.704 322.791,196.037 322.5,193.5C 322.5,192.167 322.5,190.833 322.5,189.5C 330.332,191.791 338.332,193.124 346.5,193.5C 354.385,193.862 361.718,192.029 368.5,188C 379.37,179.643 383.703,168.977 381.5,156C 382.5,155.667 383.5,155.333 384.5,155C 383.549,154.282 383.383,153.449 384,152.5C 386.658,156.157 389.658,159.491 393,162.5C 393.5,172.161 393.666,181.828 393.5,191.5 Z"/></g>
<g><path style="opacity:1" fill="#a1cebb" d="M 483.5,192.5 C 482.833,191.5 482.167,190.5 481.5,189.5C 476.744,168.19 484.744,153.69 505.5,146C 509.057,144.592 512.724,143.592 516.5,143C 526.648,141.94 536.814,141.107 547,140.5C 548.627,140.625 550.127,141.125 551.5,142C 541.291,151.233 533.124,162.066 527,174.5C 516.023,188.903 501.523,194.903 483.5,192.5 Z"/></g>
<g><path style="opacity:1" fill="#ea886e" d="M 287.5,163.5 C 287.5,163.833 287.5,164.167 287.5,164.5C 287.38,165.586 286.713,166.253 285.5,166.5C 270.36,164.719 255.36,165.386 240.5,168.5C 241.708,165.306 242.708,161.973 243.5,158.5C 245.002,159.083 246.335,159.916 247.5,161C 259.457,162.532 271.457,162.865 283.5,162C 286.334,159.816 287.668,160.316 287.5,163.5 Z"/></g>
<g><path style="opacity:1" fill="#f6baa8" d="M 222.5,169.5 C 221.308,170.566 221.641,171.399 223.5,172C 236.815,173.012 250.148,173.678 263.5,174C 262.944,174.383 262.611,174.883 262.5,175.5C 254.252,174.531 245.918,174.198 237.5,174.5C 236.325,174.281 235.325,174.614 234.5,175.5C 233.933,178.354 232.266,180.187 229.5,181C 225.179,181.499 220.846,181.666 216.5,181.5C 216.167,181.5 215.833,181.5 215.5,181.5C 215.5,177.167 215.5,172.833 215.5,168.5C 217.027,168.573 218.027,167.906 218.5,166.5C 220.117,165.962 221.784,165.629 223.5,165.5C 223.567,166.959 223.234,168.292 222.5,169.5 Z"/></g>
<g><path style="opacity:1" fill="#a5d0be" d="M 172.5,163.5 C 172.328,164.492 172.662,165.158 173.5,165.5C 173.5,165.833 173.5,166.167 173.5,166.5C 173.932,167.71 174.599,168.71 175.5,169.5C 175.5,170.167 175.5,170.833 175.5,171.5C 175.473,173.199 174.806,174.533 173.5,175.5C 155.771,180.14 142.771,174.14 134.5,157.5C 142.472,156.268 150.472,155.768 158.5,156C 163.916,157.206 168.582,159.706 172.5,163.5 Z"/></g>
<g><path style="opacity:1" fill="#ef9177" d="M 285.5,172.5 C 284.833,172.5 284.167,172.5 283.5,172.5C 279.858,173.08 276.191,173.58 272.5,174C 271.748,174.671 271.414,175.504 271.5,176.5C 268.287,176.81 265.287,176.477 262.5,175.5C 262.611,174.883 262.944,174.383 263.5,174C 250.148,173.678 236.815,173.012 223.5,172C 221.641,171.399 221.308,170.566 222.5,169.5C 241.802,170.63 261.136,170.796 280.5,170C 281.872,169.598 283.205,169.098 284.5,168.5C 284.376,169.61 284.709,170.944 285.5,172.5 Z"/></g>
<g><path style="opacity:1" fill="#fac5b3" d="M 283.5,172.5 C 282.265,174.957 280.265,176.29 277.5,176.5C 275.5,176.5 273.5,176.5 271.5,176.5C 271.414,175.504 271.748,174.671 272.5,174C 276.191,173.58 279.858,173.08 283.5,172.5 Z"/></g>
<g><path style="opacity:0.5" fill="#cbded9" d="M 129.5,163.5 C 140.973,169.637 150.973,177.637 159.5,187.5C 158.5,187.5 157.5,187.5 156.5,187.5C 155.167,187.5 153.833,187.5 152.5,187.5C 151.5,187.5 150.5,187.5 149.5,187.5C 151.369,186.835 153.369,186.169 155.5,185.5C 151.648,181.814 147.648,178.314 143.5,175C 141.167,174.333 138.833,174.333 136.5,175C 135.901,176.622 135.234,178.122 134.5,179.5C 134.416,176.673 133.75,174.006 132.5,171.5C 134.604,173.999 136.604,173.999 138.5,171.5C 135.536,168.185 131.87,166.185 127.5,165.5C 128.167,164.833 128.833,164.167 129.5,163.5 Z"/></g>
<g><path style="opacity:0.988" fill="#e8e0dc" d="M 237.5,174.5 C 245.918,174.198 254.252,174.531 262.5,175.5C 265.287,176.477 268.287,176.81 271.5,176.5C 273.5,176.5 275.5,176.5 277.5,176.5C 264.36,178.121 251.026,179.121 237.5,179.5C 237.5,177.833 237.5,176.167 237.5,174.5 Z"/></g>
<g><path style="opacity:1" fill="#d74c59" d="M 457.5,328.5 C 457.5,329.167 457.5,329.833 457.5,330.5C 451.077,330.209 444.744,330.542 438.5,331.5C 437.398,316.174 436.398,300.84 435.5,285.5C 434.962,283.883 434.629,282.216 434.5,280.5C 434.21,270.804 433.543,261.137 432.5,251.5C 432.806,248.615 432.473,245.948 431.5,243.5C 430.617,238.897 430.283,234.23 430.5,229.5C 430.5,228.167 430.5,226.833 430.5,225.5C 430.736,222.391 430.403,219.391 429.5,216.5C 429.226,212.531 428.226,208.865 426.5,205.5C 426.663,201.293 426.329,197.126 425.5,193C 428.763,188.454 430.096,183.287 429.5,177.5C 435.534,177.114 441.534,176.447 447.5,175.5C 446.799,179.819 447.966,183.486 451,186.5C 453.112,233.475 454.278,280.475 454.5,327.5C 449.456,327.173 444.456,327.506 439.5,328.5C 440,328.833 440.5,329.167 441,329.5C 446.45,328.57 451.95,328.237 457.5,328.5 Z"/></g>
<g><path style="opacity:1" fill="#a0cdba" d="M 129.5,163.5 C 128.833,164.167 128.167,164.833 127.5,165.5C 126.118,166.801 124.452,167.634 122.5,168C 126.125,168.566 129.458,169.732 132.5,171.5C 133.75,174.006 134.416,176.673 134.5,179.5C 134.834,182.491 133.834,184.824 131.5,186.5C 130.5,186.833 129.833,187.5 129.5,188.5C 127.833,188.5 126.167,188.5 124.5,188.5C 123.167,188.5 121.833,188.5 120.5,188.5C 113.776,188.756 107.109,188.423 100.5,187.5C 97.0354,186.603 94.0354,184.936 91.5,182.5C 100.04,178.897 108.373,174.73 116.5,170C 111.562,170.201 106.562,169.535 101.5,168C 93.6712,163.92 86.0045,159.587 78.5,155C 74.7102,154.145 71.0436,152.978 67.5,151.5C 80.2907,140.512 94.9574,136.345 111.5,139C 123.732,142.643 129.732,150.81 129.5,163.5 Z"/></g>
<g><path style="opacity:1" fill="#a5b5bb" d="M 215.5,181.5 C 215.833,181.5 216.167,181.5 216.5,181.5C 213.062,182.823 209.229,183.49 205,183.5C 200.985,183.499 197.151,183.165 193.5,182.5C 201.019,182.825 208.352,182.492 215.5,181.5 Z"/></g>
<g><path style="opacity:1" fill="#5c7f8f" d="M 237.5,174.5 C 237.5,176.167 237.5,177.833 237.5,179.5C 238.458,185.744 238.791,192.077 238.5,198.5C 238.63,202.868 238.297,207.202 237.5,211.5C 238.887,217.239 239.887,222.905 240.5,228.5C 240.5,229.167 240.5,229.833 240.5,230.5C 240.5,233.833 240.5,237.167 240.5,240.5C 232.813,240.46 225.146,240.793 217.5,241.5C 217.114,213.674 215.447,213.674 212.5,241.5C 209.405,241.626 207.572,243.293 207,246.5C 203.727,255.486 200.561,264.486 197.5,273.5C 195.942,276.292 194.609,279.292 193.5,282.5C 195.875,283.66 198.208,284.66 200.5,285.5C 197.346,291.806 193.68,297.806 189.5,303.5C 186.206,303.741 183.206,302.908 180.5,301C 175.728,297.418 172.394,292.918 170.5,287.5C 173.752,282.666 176.752,277.666 179.5,272.5C 183.078,266.763 185.078,260.429 185.5,253.5C 185.5,252.833 185.5,252.167 185.5,251.5C 187.885,230.287 189.219,208.954 189.5,187.5C 189.5,186.5 189.5,185.5 189.5,184.5C 190.183,182.824 191.517,182.157 193.5,182.5C 197.151,183.165 200.985,183.499 205,183.5C 209.229,183.49 213.062,182.823 216.5,181.5C 220.846,181.666 225.179,181.499 229.5,181C 232.266,180.187 233.933,178.354 234.5,175.5C 235.325,174.614 236.325,174.281 237.5,174.5 Z"/></g>
<g><path style="opacity:1" fill="#4f6f82" d="M 191.5,184.5 C 206.535,184.119 217.535,184.453 224.5,185.5C 224.699,188.941 224.199,192.274 223,195.5C 222.944,192.22 222.111,189.22 220.5,186.5C 219.542,212.832 218.542,212.832 217.5,186.5C 210.789,186.713 204.123,186.38 197.5,185.5C 197.167,194.833 196.833,194.833 196.5,185.5C 195.167,185.5 193.833,185.5 192.5,185.5C 192.666,195.172 192.5,204.839 192,214.5C 191.5,204.506 191.334,194.506 191.5,184.5 Z"/></g>
<g><path style="opacity:0.796" fill="#f1c8b1" d="M 131.5,186.5 C 136.305,187.487 141.305,187.821 146.5,187.5C 141.025,188.489 135.358,188.822 129.5,188.5C 129.833,187.5 130.5,186.833 131.5,186.5 Z"/></g>
<g><path style="opacity:1" fill="#f3a179" d="M 146.5,187.5 C 147.5,187.5 148.5,187.5 149.5,187.5C 150.5,187.5 151.5,187.5 152.5,187.5C 152.5,209.167 152.5,230.833 152.5,252.5C 143.159,252.333 133.826,252 124.5,251.5C 124.5,246.833 124.5,242.167 124.5,237.5C 132.5,237.5 140.5,237.5 148.5,237.5C 148.5,231.167 148.5,224.833 148.5,218.5C 140.5,218.5 132.5,218.5 124.5,218.5C 124.5,208.5 124.5,198.5 124.5,188.5C 126.167,188.5 127.833,188.5 129.5,188.5C 135.358,188.822 141.025,188.489 146.5,187.5 Z"/></g>
<g><path style="opacity:1" fill="#ec8d6f" d="M 152.5,187.5 C 153.833,187.5 155.167,187.5 156.5,187.5C 161.305,188.487 166.305,188.821 171.5,188.5C 171.5,209.5 171.5,230.5 171.5,251.5C 165.171,251.9 158.838,252.233 152.5,252.5C 152.5,230.833 152.5,209.167 152.5,187.5 Z"/></g>
<g><path style="opacity:1" fill="#c97264" d="M 171.5,188.5 C 174.167,188.5 176.833,188.5 179.5,188.5C 179.5,209.5 179.5,230.5 179.5,251.5C 176.833,251.5 174.167,251.5 171.5,251.5C 171.5,230.5 171.5,209.5 171.5,188.5 Z"/></g>
<g><path style="opacity:1" fill="#f3a27a" d="M 120.5,189.5 C 120.5,199.5 120.5,209.5 120.5,219.5C 115.833,219.5 111.167,219.5 106.5,219.5C 106.5,225.167 106.5,230.833 106.5,236.5C 111.167,236.5 115.833,236.5 120.5,236.5C 120.5,241.5 120.5,246.5 120.5,251.5C 114.819,251.365 109.152,251.032 103.5,250.5C 103.5,230.167 103.5,209.833 103.5,189.5C 109.167,189.5 114.833,189.5 120.5,189.5 Z"/></g>
<g><path style="opacity:1" fill="#de856b" d="M 120.5,188.5 C 121.833,188.5 123.167,188.5 124.5,188.5C 124.5,198.5 124.5,208.5 124.5,218.5C 124.5,218.833 124.5,219.167 124.5,219.5C 123.167,219.5 121.833,219.5 120.5,219.5C 120.5,209.5 120.5,199.5 120.5,189.5C 120.5,189.167 120.5,188.833 120.5,188.5 Z"/></g>
<g><path style="opacity:1" fill="#e98d70" d="M 189.5,187.5 C 189.219,208.954 187.885,230.287 185.5,251.5C 183.5,251.5 181.5,251.5 179.5,251.5C 179.5,230.5 179.5,209.5 179.5,188.5C 181.5,188.5 183.5,188.5 185.5,188.5C 186.833,188.167 188.167,187.833 189.5,187.5 Z"/></g>
<g><path style="opacity:1" fill="#4d6b77" d="M 391.5,201.5 C 385.586,204.188 379.252,205.688 372.5,206C 360.5,206.667 348.5,206.667 336.5,206C 332.698,205.591 329.031,204.757 325.5,203.5C 324.271,200.865 324.271,198.199 325.5,195.5C 334.479,199.876 343.979,201.543 354,200.5C 366.727,200.732 379.061,198.732 391,194.5C 391.497,196.81 391.663,199.143 391.5,201.5 Z"/></g>
<g><path style="opacity:1" fill="#4b6471" d="M 424.5,189.5 C 424.721,192.279 424.388,194.946 423.5,197.5C 419.561,199.648 415.395,201.315 411,202.5C 409.257,200.68 407.757,198.68 406.5,196.5C 413.726,197.314 419.726,194.98 424.5,189.5 Z"/></g>
<g><path style="opacity:1" fill="#a2cdbb" d="M 455.5,176.5 C 469.49,187.459 472.49,200.792 464.5,216.5C 462.565,215.85 460.565,215.517 458.5,215.5C 457.833,215.5 457.167,215.5 456.5,215.5C 455.537,202.549 455.204,189.549 455.5,176.5 Z"/></g>
<g><path style="opacity:1" fill="#d74e5a" d="M 406.5,196.5 C 407.757,198.68 409.257,200.68 411,202.5C 415.395,201.315 419.561,199.648 423.5,197.5C 424.531,199.961 425.198,202.627 425.5,205.5C 423.833,205.5 422.167,205.5 420.5,205.5C 419.987,220.495 419.654,235.495 419.5,250.5C 417.833,247.833 416.167,245.167 414.5,242.5C 410.366,241.515 406.032,241.182 401.5,241.5C 401.5,237.167 401.5,232.833 401.5,228.5C 401.538,219.154 401.871,209.82 402.5,200.5C 403.314,198.369 403.814,196.036 404,193.5C 404.377,194.942 405.21,195.942 406.5,196.5 Z"/></g>
<g><path style="opacity:0.761" fill="#c5dad5" d="M 481.5,189.5 C 482.167,190.5 482.833,191.5 483.5,192.5C 476.294,202.402 470.294,213.068 465.5,224.5C 465.667,224.833 465.833,225.167 466,225.5C 466.708,224.619 467.542,223.953 468.5,223.5C 468.5,224.5 468.5,225.5 468.5,226.5C 466.833,227.5 465.5,228.833 464.5,230.5C 463.504,230.414 462.671,230.748 462,231.5C 460.513,234.481 459.179,237.481 458,240.5C 457.616,238.803 457.782,237.137 458.5,235.5C 459.838,230.827 461.172,226.16 462.5,221.5C 462.167,220.167 461.833,218.833 461.5,217.5C 460.261,217.058 459.261,216.391 458.5,215.5C 460.565,215.517 462.565,215.85 464.5,216.5C 465.077,217.773 465.743,217.773 466.5,216.5C 470.345,208.166 475.178,200.5 481,193.5C 481.49,192.207 481.657,190.873 481.5,189.5 Z"/></g>
<g><path style="opacity:1" fill="#c74746" d="M 425.5,205.5 C 425.833,205.5 426.167,205.5 426.5,205.5C 428.226,208.865 429.226,212.531 429.5,216.5C 428.539,218.265 428.205,220.265 428.5,222.5C 428.5,223.833 428.5,225.167 428.5,226.5C 428.271,232.897 427.604,239.231 426.5,245.5C 425.539,247.265 425.205,249.265 425.5,251.5C 424.841,254.455 424.508,257.455 424.5,260.5C 422.326,257.485 420.659,254.151 419.5,250.5C 419.654,235.495 419.987,220.495 420.5,205.5C 422.167,205.5 423.833,205.5 425.5,205.5 Z"/></g>
<g><path style="opacity:1" fill="#a3cfbd" d="M 522.5,218.5 C 522.5,217.833 522.5,217.167 522.5,216.5C 524.549,208.616 529.549,203.449 537.5,201C 552.088,197.698 564.755,201.198 575.5,211.5C 568.877,214.478 562.543,217.978 556.5,222C 544.67,225.304 533.337,224.137 522.5,218.5 Z"/></g>
<g><path style="opacity:1" fill="#a1cebb" d="M 502.5,225.5 C 502.167,225.5 501.833,225.5 501.5,225.5C 499.77,226.026 498.436,227.026 497.5,228.5C 497.167,228.5 496.833,228.5 496.5,228.5C 495.508,228.328 494.842,228.662 494.5,229.5C 485.269,232.788 476.602,231.788 468.5,226.5C 468.5,225.5 468.5,224.5 468.5,223.5C 473.702,214.044 481.702,208.211 492.5,206C 500.5,205.333 508.5,205.333 516.5,206C 518.715,206.17 520.715,206.837 522.5,208C 520.33,209.586 517.996,210.92 515.5,212C 511.027,216.521 506.694,221.021 502.5,225.5 Z"/></g>
<g><path style="opacity:0.776" fill="#dc878e" d="M 429.5,216.5 C 430.403,219.391 430.736,222.391 430.5,225.5C 429.833,224.5 429.167,223.5 428.5,222.5C 428.205,220.265 428.539,218.265 429.5,216.5 Z"/></g>
<g><path style="opacity:1" fill="#f6dfcf" d="M 124.5,219.5 C 124.5,219.167 124.5,218.833 124.5,218.5C 132.5,218.5 140.5,218.5 148.5,218.5C 148.5,224.833 148.5,231.167 148.5,237.5C 140.5,237.5 132.5,237.5 124.5,237.5C 124.5,237.167 124.5,236.833 124.5,236.5C 132.167,236.5 139.833,236.5 147.5,236.5C 147.957,232.416 147.29,228.583 145.5,225C 146.26,223.559 146.926,222.059 147.5,220.5C 139.862,219.503 132.196,219.169 124.5,219.5 Z"/></g>
<g><path style="opacity:1" fill="#e4eaeb" d="M 217.5,241.5 C 216.5,241.5 215.5,241.5 214.5,241.5C 213.833,241.5 213.167,241.5 212.5,241.5C 215.447,213.674 217.114,213.674 217.5,241.5 Z"/></g>
<g><path style="opacity:0.965" fill="#89a2ac" d="M 238.5,198.5 C 239.905,208.301 240.572,218.301 240.5,228.5C 239.887,222.905 238.887,217.239 237.5,211.5C 238.297,207.202 238.63,202.868 238.5,198.5 Z"/></g>
<g><path style="opacity:0.027" fill="#f8eaea" d="M 428.5,222.5 C 429.167,223.5 429.833,224.5 430.5,225.5C 430.5,226.833 430.5,228.167 430.5,229.5C 429.833,228.5 429.167,227.5 428.5,226.5C 428.5,225.167 428.5,223.833 428.5,222.5 Z"/></g>
<g><path style="opacity:1" fill="#eee7e6" d="M 120.5,219.5 C 121.833,219.5 123.167,219.5 124.5,219.5C 132.196,219.169 139.862,219.503 147.5,220.5C 146.926,222.059 146.26,223.559 145.5,225C 147.29,228.583 147.957,232.416 147.5,236.5C 139.833,236.5 132.167,236.5 124.5,236.5C 123.167,236.5 121.833,236.5 120.5,236.5C 115.833,236.5 111.167,236.5 106.5,236.5C 106.5,230.833 106.5,225.167 106.5,219.5C 111.167,219.5 115.833,219.5 120.5,219.5 Z"/></g>
<g><path style="opacity:1" fill="#857483" d="M 119.5,225.5 C 122.962,224.518 126.629,224.185 130.5,224.5C 130.5,225.5 130.5,226.5 130.5,227.5C 131.5,227.5 132.5,227.5 133.5,227.5C 134.833,227.833 134.833,228.167 133.5,228.5C 132.5,228.5 131.5,228.5 130.5,228.5C 130.649,229.552 130.483,230.552 130,231.5C 129,223.5 128,223.5 127,231.5C 126.505,229.527 126.338,227.527 126.5,225.5C 123.724,225.089 123.057,225.922 124.5,228C 124.361,229.301 123.695,230.134 122.5,230.5C 122.5,228.833 122.5,227.167 122.5,225.5C 121.5,225.5 120.5,225.5 119.5,225.5 Z"/></g>
<g><path style="opacity:1" fill="#897989" d="M 113.5,224.5 C 114.461,226.265 114.795,228.265 114.5,230.5C 118.172,231.045 117.838,231.378 113.5,231.5C 113.5,229.167 113.5,226.833 113.5,224.5 Z"/></g>
<g><path style="opacity:1" fill="#786979" d="M 141.5,225.5 C 143.957,226.735 145.29,228.735 145.5,231.5C 141.107,231.543 140.774,231.043 144.5,230C 142.561,229.092 141.561,227.592 141.5,225.5 Z"/></g>
<g><path style="opacity:1" fill="#f2ece9" d="M 119.5,225.5 C 120.5,225.5 121.5,225.5 122.5,225.5C 122.5,227.167 122.5,228.833 122.5,230.5C 119.916,229.952 118.916,228.285 119.5,225.5 Z"/></g>
<g><path style="opacity:1" fill="#655164" d="M 136.5,224.5 C 141.041,224.331 141.374,224.998 137.5,226.5C 138.025,227.192 138.692,227.692 139.5,228C 136.999,229.418 137.332,230.418 140.5,231C 139.207,231.49 137.873,231.657 136.5,231.5C 136.5,229.167 136.5,226.833 136.5,224.5 Z"/></g>
<g><path style="opacity:1" fill="#80707f" d="M 108.5,224.5 C 112.893,224.457 113.226,224.957 109.5,226C 108.809,227.067 108.309,228.234 108,229.5C 107.36,227.735 107.527,226.068 108.5,224.5 Z"/></g>
<g><path style="opacity:0.083" fill="#f7f9f9" d="M 464.5,230.5 C 463.896,233.997 462.73,237.33 461,240.5C 459.989,241.337 458.822,241.67 457.5,241.5C 457.768,243.099 457.434,244.432 456.5,245.5C 456.5,241.167 456.5,236.833 456.5,232.5C 457.167,233.5 457.833,234.5 458.5,235.5C 457.782,237.137 457.616,238.803 458,240.5C 459.179,237.481 460.513,234.481 462,231.5C 462.671,230.748 463.504,230.414 464.5,230.5 Z"/></g>
<g><path style="opacity:0.584" fill="#c1d7d2" d="M 522.5,216.5 C 522.5,217.167 522.5,217.833 522.5,218.5C 507.238,224.126 493.571,232.292 481.5,243C 486.785,244.045 491.785,243.545 496.5,241.5C 495.85,243.435 495.517,245.435 495.5,247.5C 494.596,246.791 494.263,245.791 494.5,244.5C 490.629,244.185 486.962,244.518 483.5,245.5C 481.833,245.5 480.167,245.5 478.5,245.5C 476.566,246.11 474.899,247.11 473.5,248.5C 468.595,249.445 463.595,249.779 458.5,249.5C 462.647,248.675 466.981,248.175 471.5,248C 478.604,241.562 486.27,235.895 494.5,231C 495.738,230.31 495.738,229.81 494.5,229.5C 494.842,228.662 495.508,228.328 496.5,228.5C 496.833,229.833 497.167,229.833 497.5,228.5C 498.436,227.026 499.77,226.026 501.5,225.5C 501.833,226.833 502.167,226.833 502.5,225.5C 509.172,222.499 515.838,219.499 522.5,216.5 Z M 478.5,245.5 C 480.167,245.5 481.833,245.5 483.5,245.5C 485.379,245.393 485.712,245.893 484.5,247C 482.167,247.667 479.833,247.667 477.5,247C 478.056,246.617 478.389,246.117 478.5,245.5 Z"/></g>
<g><path style="opacity:1" fill="#a2cdbb" d="M 540.5,253.5 C 540.5,252.167 540.5,250.833 540.5,249.5C 525.324,249.829 510.324,249.496 495.5,248.5C 495.5,248.167 495.5,247.833 495.5,247.5C 495.517,245.435 495.85,243.435 496.5,241.5C 497.961,238.745 500.295,236.912 503.5,236C 508.167,235.333 512.833,235.333 517.5,236C 526.654,240.074 535.321,244.908 543.5,250.5C 542.812,251.855 541.812,252.855 540.5,253.5 Z"/></g>
<g><path style="opacity:1" fill="#df866c" d="M 120.5,236.5 C 121.833,236.5 123.167,236.5 124.5,236.5C 124.5,236.833 124.5,237.167 124.5,237.5C 124.5,242.167 124.5,246.833 124.5,251.5C 123.167,251.5 121.833,251.5 120.5,251.5C 120.5,246.5 120.5,241.5 120.5,236.5 Z"/></g>
<g><path style="opacity:0.446" fill="#f3ccb6" d="M 100.5,187.5 C 107.109,188.423 113.776,188.756 120.5,188.5C 120.5,188.833 120.5,189.167 120.5,189.5C 114.833,189.5 109.167,189.5 103.5,189.5C 103.5,209.833 103.5,230.167 103.5,250.5C 102.791,251.404 101.791,251.737 100.5,251.5C 95.8333,251.5 91.1667,251.5 86.5,251.5C 91.6405,250.512 96.9738,250.179 102.5,250.5C 102.667,230.164 102.5,209.831 102,189.5C 101.283,188.956 100.783,188.289 100.5,187.5 Z"/></g>
<g><path style="opacity:0.212" fill="#e0d8d8" d="M 240.5,230.5 C 241.477,233.287 241.81,236.287 241.5,239.5C 245.5,239.5 249.5,239.5 253.5,239.5C 249.366,240.485 245.032,240.818 240.5,240.5C 240.5,237.167 240.5,233.833 240.5,230.5 Z"/></g>
<g><path style="opacity:1" fill="#d57870" d="M 401.5,228.5 C 401.5,232.833 401.5,237.167 401.5,241.5C 406.032,241.182 410.366,241.515 414.5,242.5C 392.804,242.647 371.137,243.313 349.5,244.5C 339.717,242.713 329.717,241.38 319.5,240.5C 312.486,241.101 305.486,241.768 298.5,242.5C 282.939,241.025 267.606,241.692 252.5,244.5C 239.637,244.095 226.971,243.095 214.5,241.5C 215.5,241.5 216.5,241.5 217.5,241.5C 225.146,240.793 232.813,240.46 240.5,240.5C 245.032,240.818 249.366,240.485 253.5,239.5C 273.489,238.567 293.489,237.901 313.5,237.5C 342.502,238.467 371.502,239.467 400.5,240.5C 400.183,236.298 400.517,232.298 401.5,228.5 Z"/></g>
<g><path style="opacity:1" fill="#624161" d="M 349.5,244.5 C 336.167,244.833 322.833,245.167 309.5,245.5C 305.898,244.225 302.231,243.225 298.5,242.5C 305.486,241.768 312.486,241.101 319.5,240.5C 329.717,241.38 339.717,242.713 349.5,244.5 Z"/></g>
<g><path style="opacity:1" fill="#f2b98c" d="M 212.5,241.5 C 213.167,241.5 213.833,241.5 214.5,241.5C 226.971,243.095 239.637,244.095 252.5,244.5C 260.321,245.03 267.988,245.696 275.5,246.5C 254.149,246.579 232.815,247.246 211.5,248.5C 207.059,257.057 202.392,265.391 197.5,273.5C 200.561,264.486 203.727,255.486 207,246.5C 207.572,243.293 209.405,241.626 212.5,241.5 Z"/></g>
<g><path style="opacity:1" fill="#6a7f84" d="M 298.5,242.5 C 302.231,243.225 305.898,244.225 309.5,245.5C 298.169,245.907 286.836,246.241 275.5,246.5C 267.988,245.696 260.321,245.03 252.5,244.5C 267.606,241.692 282.939,241.025 298.5,242.5 Z"/></g>
<g><path style="opacity:1" fill="#f3a27a" d="M 414.5,242.5 C 414.168,276.671 414.502,310.671 415.5,344.5C 415.5,347.5 415.5,350.5 415.5,353.5C 371.172,356.237 326.839,358.903 282.5,361.5C 282.667,323.499 282.5,285.499 282,247.5C 277.93,262.377 273.096,276.877 267.5,291C 248.222,289.373 228.888,287.539 209.5,285.5C 208.081,284.549 206.415,284.216 204.5,284.5C 203.041,284.433 201.708,284.766 200.5,285.5C 198.208,284.66 195.875,283.66 193.5,282.5C 194.609,279.292 195.942,276.292 197.5,273.5C 202.392,265.391 207.059,257.057 211.5,248.5C 232.815,247.246 254.149,246.579 275.5,246.5C 286.836,246.241 298.169,245.907 309.5,245.5C 322.833,245.167 336.167,244.833 349.5,244.5C 371.137,243.313 392.804,242.647 414.5,242.5 Z"/></g>
<g><path style="opacity:1" fill="#d36b63" d="M 414.5,242.5 C 416.167,245.167 417.833,247.833 419.5,250.5C 420.659,254.151 422.326,257.485 424.5,260.5C 427.325,267.484 430.659,274.151 434.5,280.5C 434.629,282.216 434.962,283.883 435.5,285.5C 430.637,285.181 425.97,285.514 421.5,286.5C 421.768,288.099 421.434,289.432 420.5,290.5C 420.5,289.167 420.5,287.833 420.5,286.5C 418.833,286.5 417.167,286.5 415.5,286.5C 415.5,301.5 415.5,316.5 415.5,331.5C 415.5,335.833 415.5,340.167 415.5,344.5C 414.502,310.671 414.168,276.671 414.5,242.5 Z"/></g>
<g><path style="opacity:0.391" fill="#f7faf9" d="M 483.5,245.5 C 486.962,244.518 490.629,244.185 494.5,244.5C 494.263,245.791 494.596,246.791 495.5,247.5C 495.5,247.833 495.5,248.167 495.5,248.5C 488.167,248.5 480.833,248.5 473.5,248.5C 474.899,247.11 476.566,246.11 478.5,245.5C 478.389,246.117 478.056,246.617 477.5,247C 479.833,247.667 482.167,247.667 484.5,247C 485.712,245.893 485.379,245.393 483.5,245.5 Z M 478.5,245.5 C 480.167,245.5 481.833,245.5 483.5,245.5C 485.379,245.393 485.712,245.893 484.5,247C 482.167,247.667 479.833,247.667 477.5,247C 478.056,246.617 478.389,246.117 478.5,245.5 Z"/></g>
<g><path style="opacity:1" fill="#f4be95" d="M 456.5,248.5 C 457.167,248.833 457.833,249.167 458.5,249.5C 463.595,249.779 468.595,249.445 473.5,248.5C 480.833,248.5 488.167,248.5 495.5,248.5C 510.324,249.496 525.324,249.829 540.5,249.5C 540.5,250.833 540.5,252.167 540.5,253.5C 540.5,266.833 540.5,280.167 540.5,293.5C 539.504,279.343 539.171,265.01 539.5,250.5C 528.815,250.39 518.148,250.723 507.5,251.5C 505.167,251.5 502.833,251.5 500.5,251.5C 490.861,252.36 481.194,252.693 471.5,252.5C 466.5,252.5 461.5,252.5 456.5,252.5C 456.5,251.167 456.5,249.833 456.5,248.5 Z"/></g>
<g><path style="opacity:0.41" fill="#ecbaaf" d="M 431.5,243.5 C 432.473,245.948 432.806,248.615 432.5,251.5C 430.167,251.5 427.833,251.5 425.5,251.5C 425.205,249.265 425.539,247.265 426.5,245.5C 426.5,247.167 426.5,248.833 426.5,250.5C 428.167,250.5 429.833,250.5 431.5,250.5C 431.5,248.167 431.5,245.833 431.5,243.5 Z"/></g>
<g><path style="opacity:1" fill="#ea8a6e" d="M 425.5,251.5 C 427.833,251.5 430.167,251.5 432.5,251.5C 433.543,261.137 434.21,270.804 434.5,280.5C 430.659,274.151 427.325,267.484 424.5,260.5C 424.508,257.455 424.841,254.455 425.5,251.5 Z"/></g>
<g><path style="opacity:1" fill="#f3a27a" d="M 86.5,251.5 C 91.1667,251.5 95.8333,251.5 100.5,251.5C 104.298,252.483 108.298,252.817 112.5,252.5C 112.5,267.833 112.5,283.167 112.5,298.5C 105.504,298.106 98.5036,297.773 91.5,297.5C 91.5,303.5 91.5,309.5 91.5,315.5C 100.015,316.121 108.349,317.121 116.5,318.5C 115.167,318.5 113.833,318.5 112.5,318.5C 111.934,325.451 112.601,332.118 114.5,338.5C 105.169,337.5 95.8359,336.5 86.5,335.5C 86.5,328.833 86.5,322.167 86.5,315.5C 86.5,294.167 86.5,272.833 86.5,251.5 Z"/></g>
<g><path style="opacity:1" fill="#f4b48a" d="M 103.5,250.5 C 109.152,251.032 114.819,251.365 120.5,251.5C 121.833,251.5 123.167,251.5 124.5,251.5C 133.826,252 143.159,252.333 152.5,252.5C 158.838,252.233 165.171,251.9 171.5,251.5C 174.167,251.5 176.833,251.5 179.5,251.5C 181.5,251.5 183.5,251.5 185.5,251.5C 185.5,252.167 185.5,252.833 185.5,253.5C 183.5,253.5 181.5,253.5 179.5,253.5C 171.5,253.5 163.5,253.5 155.5,253.5C 143.487,253.539 131.487,253.206 119.5,252.5C 117.167,252.5 114.833,252.5 112.5,252.5C 108.298,252.817 104.298,252.483 100.5,251.5C 101.791,251.737 102.791,251.404 103.5,250.5 Z"/></g>
<g><path style="opacity:1" fill="#eb8d6f" d="M 282.5,361.5 C 258.092,357.982 233.758,353.982 209.5,349.5C 209.5,338.833 209.5,328.167 209.5,317.5C 209.5,306.833 209.5,296.167 209.5,285.5C 228.888,287.539 248.222,289.373 267.5,291C 273.096,276.877 277.93,262.377 282,247.5C 282.5,285.499 282.667,323.499 282.5,361.5 Z"/></g>
<g><path style="opacity:1" fill="#eb8c6e" d="M 456.5,252.5 C 461.5,252.5 466.5,252.5 471.5,252.5C 471.5,280.167 471.5,307.833 471.5,335.5C 469.938,335.267 468.605,334.6 467.5,333.5C 465.237,331.617 462.57,330.284 459.5,329.5C 458.893,329.624 458.56,329.957 458.5,330.5C 458.167,330.5 457.833,330.5 457.5,330.5C 457.5,329.833 457.5,329.167 457.5,328.5C 457.5,328.167 457.5,327.833 457.5,327.5C 457.68,302.49 457.347,277.49 456.5,252.5 Z"/></g>
<g><path style="opacity:1" fill="#f3a27a" d="M 500.5,251.5 C 500.5,260.167 500.5,268.833 500.5,277.5C 502.167,277.5 503.833,277.5 505.5,277.5C 496.369,278.909 487.035,279.576 477.5,279.5C 477.5,286.167 477.5,292.833 477.5,299.5C 485.167,298.833 492.833,298.167 500.5,297.5C 500.5,310.833 500.5,324.167 500.5,337.5C 502.167,337.5 503.833,337.5 505.5,337.5C 495.67,338.75 485.67,339.75 475.5,340.5C 475.167,340.5 474.833,340.5 474.5,340.5C 473.925,338.589 472.925,336.922 471.5,335.5C 471.5,307.833 471.5,280.167 471.5,252.5C 481.194,252.693 490.861,252.36 500.5,251.5 Z"/></g>
<g><path style="opacity:1" fill="#e0866c" d="M 112.5,252.5 C 114.833,252.5 117.167,252.5 119.5,252.5C 119.5,268.167 119.5,283.833 119.5,299.5C 116.941,299.802 114.607,299.468 112.5,298.5C 112.5,283.167 112.5,267.833 112.5,252.5 Z"/></g>
<g><path style="opacity:1" fill="#f3a27a" d="M 119.5,252.5 C 131.487,253.206 143.487,253.539 155.5,253.5C 155.5,271.167 155.5,288.833 155.5,306.5C 156.5,306.5 157.5,306.5 158.5,306.5C 158.5,306.833 158.5,307.167 158.5,307.5C 156.473,307.338 154.473,307.505 152.5,308C 151.944,308.383 151.611,308.883 151.5,309.5C 150.833,309.5 150.167,309.5 149.5,309.5C 149.5,306.833 149.5,304.167 149.5,301.5C 146.833,301.5 144.167,301.5 141.5,301.5C 134.059,301.489 126.726,300.822 119.5,299.5C 119.5,283.833 119.5,268.167 119.5,252.5 Z"/></g>
<g><path style="opacity:1" fill="#eb8d6f" d="M 155.5,253.5 C 163.5,253.5 171.5,253.5 179.5,253.5C 179.5,259.833 179.5,266.167 179.5,272.5C 176.752,277.666 173.752,282.666 170.5,287.5C 167.256,289.071 164.589,291.405 162.5,294.5C 163.18,295.86 163.847,297.193 164.5,298.5C 164.385,300.947 163.385,302.947 161.5,304.5C 160.5,305.167 159.5,305.833 158.5,306.5C 157.5,306.5 156.5,306.5 155.5,306.5C 155.5,288.833 155.5,271.167 155.5,253.5 Z"/></g>
<g><path style="opacity:1" fill="#e1856a" d="M 500.5,251.5 C 502.833,251.5 505.167,251.5 507.5,251.5C 507.5,260.167 507.5,268.833 507.5,277.5C 506.833,277.5 506.167,277.5 505.5,277.5C 503.833,277.5 502.167,277.5 500.5,277.5C 500.5,268.833 500.5,260.167 500.5,251.5 Z"/></g>
<g><path style="opacity:1" fill="#c47164" d="M 179.5,253.5 C 181.5,253.5 183.5,253.5 185.5,253.5C 185.078,260.429 183.078,266.763 179.5,272.5C 179.5,266.167 179.5,259.833 179.5,253.5 Z"/></g>
<g><path style="opacity:1" fill="#d85861" d="M 455.5,163.5 C 456.662,167.687 456.662,172.02 455.5,176.5C 455.204,189.549 455.537,202.549 456.5,215.5C 456.5,221.167 456.5,226.833 456.5,232.5C 456.5,236.833 456.5,241.167 456.5,245.5C 456.5,246.5 456.5,247.5 456.5,248.5C 456.5,249.833 456.5,251.167 456.5,252.5C 457.347,277.49 457.68,302.49 457.5,327.5C 455.571,277.834 453.905,228.001 452.5,178C 452.698,175.879 453.364,174.046 454.5,172.5C 455.477,169.713 455.81,166.713 455.5,163.5 Z"/></g>
<g><path style="opacity:1" fill="#bf3e49" d="M 454.5,172.5 C 453.364,174.046 452.698,175.879 452.5,178C 453.905,228.001 455.571,277.834 457.5,327.5C 457.5,327.833 457.5,328.167 457.5,328.5C 451.95,328.237 446.45,328.57 441,329.5C 440.5,329.167 440,328.833 439.5,328.5C 444.456,327.506 449.456,327.173 454.5,327.5C 454.278,280.475 453.112,233.475 451,186.5C 447.966,183.486 446.799,179.819 447.5,175.5C 441.534,176.447 435.534,177.114 429.5,177.5C 430.096,183.287 428.763,188.454 425.5,193C 426.329,197.126 426.663,201.293 426.5,205.5C 426.167,205.5 425.833,205.5 425.5,205.5C 425.198,202.627 424.531,199.961 423.5,197.5C 424.388,194.946 424.721,192.279 424.5,189.5C 425.426,184.666 425.426,179.666 424.5,174.5C 434.482,173.739 444.482,173.072 454.5,172.5 Z"/></g>
<g><path style="opacity:1" fill="#ea8d6f" d="M 204.5,284.5 C 204.5,301.5 204.5,318.5 204.5,335.5C 198.688,336.577 192.688,337.243 186.5,337.5C 186.5,329.167 186.5,320.833 186.5,312.5C 187.806,310.184 189.139,307.85 190.5,305.5C 190.137,304.817 189.804,304.15 189.5,303.5C 193.68,297.806 197.346,291.806 200.5,285.5C 201.708,284.766 203.041,284.433 204.5,284.5 Z"/></g>
<g><path style="opacity:1" fill="#edd0c2" d="M 204.5,284.5 C 206.415,284.216 208.081,284.549 209.5,285.5C 208.167,285.5 206.833,285.5 205.5,285.5C 205.5,296.167 205.5,306.833 205.5,317.5C 205.823,323.69 205.49,329.69 204.5,335.5C 204.5,318.5 204.5,301.5 204.5,284.5 Z"/></g>
<g><path style="opacity:1" fill="#fefdfc" d="M 209.5,285.5 C 209.5,296.167 209.5,306.833 209.5,317.5C 208.167,317.5 206.833,317.5 205.5,317.5C 205.5,306.833 205.5,296.167 205.5,285.5C 206.833,285.5 208.167,285.5 209.5,285.5 Z"/></g>
<g><path style="opacity:1" fill="#d44f59" d="M 420.5,290.5 C 420.5,291.833 420.5,293.167 420.5,294.5C 419.739,305.206 418.739,315.872 417.5,326.5C 416.833,328.167 416.167,329.833 415.5,331.5C 415.5,316.5 415.5,301.5 415.5,286.5C 417.167,286.5 418.833,286.5 420.5,286.5C 420.5,287.833 420.5,289.167 420.5,290.5 Z"/></g>
<g><path style="opacity:1" fill="#eb8c6f" d="M 421.5,286.5 C 425.97,285.514 430.637,285.181 435.5,285.5C 436.398,300.84 437.398,316.174 438.5,331.5C 438.5,333.833 438.5,336.167 438.5,338.5C 438.167,338.5 437.833,338.5 437.5,338.5C 432.473,338.497 427.473,338.164 422.5,337.5C 422.83,320.325 422.497,303.325 421.5,286.5 Z"/></g>
<g><path style="opacity:1" fill="#f2eae6" d="M 507.5,296.5 C 504.941,296.198 502.607,296.532 500.5,297.5C 492.833,298.167 485.167,298.833 477.5,299.5C 477.5,292.833 477.5,286.167 477.5,279.5C 487.035,279.576 496.369,278.909 505.5,277.5C 506.167,277.5 506.833,277.5 507.5,277.5C 516.815,276.613 526.149,275.946 535.5,275.5C 535.5,281.5 535.5,287.5 535.5,293.5C 526.148,294.354 516.815,295.354 507.5,296.5 Z"/></g>
<g><path style="opacity:1" fill="#88778a" d="M 519.5,280.5 C 525.373,280.598 525.706,281.598 520.5,283.5C 524.335,284.996 524.335,285.996 520.5,286.5C 520.5,287.5 520.5,288.5 520.5,289.5C 523.276,288.886 525.943,288.719 528.5,289C 528.957,288.586 529.291,288.086 529.5,287.5C 526.003,286.827 524.837,284.827 526,281.5C 526.483,282.448 526.649,283.448 526.5,284.5C 530.35,284.701 531.35,286.534 529.5,290C 525.886,290.936 522.22,291.436 518.5,291.5C 518.244,287.731 518.577,284.064 519.5,280.5 Z"/></g>
<g><path style="opacity:1" fill="#7a6880" d="M 503.5,281.5 C 505.604,281.201 507.604,281.534 509.5,282.5C 507.87,285.578 507.037,288.911 507,292.5C 506.502,289.518 506.335,286.518 506.5,283.5C 504.821,283.715 503.821,283.048 503.5,281.5 Z"/></g>
<g><path style="opacity:1" fill="#68556b" d="M 510.5,281.5 C 511.434,282.568 511.768,283.901 511.5,285.5C 512.833,285.5 514.167,285.5 515.5,285.5C 516.833,286.167 516.833,286.833 515.5,287.5C 514.167,287.5 512.833,287.5 511.5,287.5C 511.66,289.199 511.494,290.866 511,292.5C 510.501,288.848 510.335,285.182 510.5,281.5 Z"/></g>
<g><path style="opacity:1" fill="#f3a27a" d="M 540.5,293.5 C 540.5,298.833 540.5,304.167 540.5,309.5C 540.5,317.833 540.5,326.167 540.5,334.5C 529.484,335.419 518.484,336.419 507.5,337.5C 507.5,323.833 507.5,310.167 507.5,296.5C 516.815,295.354 526.148,294.354 535.5,293.5C 535.5,287.5 535.5,281.5 535.5,275.5C 526.149,275.946 516.815,276.613 507.5,277.5C 507.5,268.833 507.5,260.167 507.5,251.5C 518.148,250.723 528.815,250.39 539.5,250.5C 539.171,265.01 539.504,279.343 540.5,293.5 Z"/></g>
<g><path style="opacity:1" fill="#a393a2" d="M 489.5,283.5 C 491.388,285.988 492.055,288.988 491.5,292.5C 492.873,292.343 494.207,292.51 495.5,293C 493.75,294.319 491.75,294.819 489.5,294.5C 489.5,290.833 489.5,287.167 489.5,283.5 Z"/></g>
<g><path style="opacity:1" fill="#655169" d="M 484.5,283.5 C 489.778,284.605 489.612,285.605 484,286.5C 482.539,290.436 483.705,292.936 487.5,294C 483.518,295.187 481.851,293.687 482.5,289.5C 482.363,287.159 483.03,285.159 484.5,283.5 Z"/></g>
<g><path style="opacity:1" fill="#857487" d="M 497.5,284.5 C 499.722,281.729 501.555,282.062 503,285.5C 503.782,288.257 503.282,290.757 501.5,293C 498.783,294.033 496.949,293.2 496,290.5C 495.059,288.011 495.559,286.011 497.5,284.5 Z"/></g>
<g><path style="opacity:1" fill="#f4eeeb" d="M 497.5,284.5 C 498.833,284.5 500.167,284.5 501.5,284.5C 501.5,286.833 501.5,289.167 501.5,291.5C 500.167,291.5 498.833,291.5 497.5,291.5C 497.5,289.167 497.5,286.833 497.5,284.5 Z"/></g>
<g><path style="opacity:1" fill="#7aa7a8" d="M 170.5,287.5 C 172.394,292.918 175.728,297.418 180.5,301C 183.206,302.908 186.206,303.741 189.5,303.5C 189.804,304.15 190.137,304.817 190.5,305.5C 189.139,307.85 187.806,310.184 186.5,312.5C 185.685,313.429 184.852,314.429 184,315.5C 182.67,314.418 181.17,313.751 179.5,313.5C 178.564,312.026 177.23,311.026 175.5,310.5C 171.124,307.126 167.458,303.126 164.5,298.5C 163.847,297.193 163.18,295.86 162.5,294.5C 164.589,291.405 167.256,289.071 170.5,287.5 Z"/></g>
<g><path style="opacity:1" fill="#f4eeea" d="M 404.5,293.5 C 405.097,303.097 404.431,312.43 402.5,321.5C 368.161,323.783 333.827,326.116 299.5,328.5C 299.5,318.167 299.5,307.833 299.5,297.5C 334.516,296.558 369.516,295.225 404.5,293.5 Z"/></g>
<g><path style="opacity:1" fill="#e8bbac" d="M 421.5,286.5 C 422.497,303.325 422.83,320.325 422.5,337.5C 421.833,323.167 421.167,308.833 420.5,294.5C 420.5,293.167 420.5,291.833 420.5,290.5C 421.434,289.432 421.768,288.099 421.5,286.5 Z"/></g>
<g><path style="opacity:1" fill="#e1856b" d="M 507.5,296.5 C 507.5,310.167 507.5,323.833 507.5,337.5C 506.833,337.5 506.167,337.5 505.5,337.5C 503.833,337.5 502.167,337.5 500.5,337.5C 500.5,324.167 500.5,310.833 500.5,297.5C 502.607,296.532 504.941,296.198 507.5,296.5 Z"/></g>
<g><path style="opacity:1" fill="#f4cfb9" d="M 141.5,301.5 C 144.167,301.5 146.833,301.5 149.5,301.5C 149.5,304.167 149.5,306.833 149.5,309.5C 149.5,310.833 149.5,312.167 149.5,313.5C 149.5,316.5 149.5,319.5 149.5,322.5C 148.209,322.737 147.209,322.404 146.5,321.5C 148.456,315.588 149.123,309.255 148.5,302.5C 145.941,302.802 143.607,302.468 141.5,301.5 Z"/></g>
<g><path style="opacity:1" fill="#9b8c9d" d="M 358.5,304.5 C 361.687,303.194 365.02,303.194 368.5,304.5C 368.376,305.107 368.043,305.44 367.5,305.5C 364.713,304.523 361.713,304.19 358.5,304.5 Z"/></g>
<g><path style="opacity:1" fill="#f9bca8" d="M 161.5,304.5 C 165.034,307.454 169.034,309.454 173.5,310.5C 171.833,312.5 170.167,314.5 168.5,316.5C 163.28,315.614 159.947,312.614 158.5,307.5C 158.5,307.167 158.5,306.833 158.5,306.5C 159.5,305.833 160.5,305.167 161.5,304.5 Z"/></g>
<g><path style="opacity:1" fill="#ed9e9b" d="M 164.5,298.5 C 167.458,303.126 171.124,307.126 175.5,310.5C 174.833,310.5 174.167,310.5 173.5,310.5C 169.034,309.454 165.034,307.454 161.5,304.5C 163.385,302.947 164.385,300.947 164.5,298.5 Z"/></g>
<g><path style="opacity:1" fill="#5a4360" d="M 358.5,304.5 C 361.713,304.19 364.713,304.523 367.5,305.5C 366.5,305.5 365.5,305.5 364.5,305.5C 363.833,318.833 363.167,318.833 362.5,305.5C 360.901,305.768 359.568,305.434 358.5,304.5 Z"/></g>
<g><path style="opacity:1" fill="#5d4764" d="M 397.5,301.5 C 398.794,303.048 399.461,305.048 399.5,307.5C 399.167,309.5 398.833,311.5 398.5,313.5C 396.343,311.208 394.176,308.875 392,306.5C 391.818,309.226 391.318,311.893 390.5,314.5C 389.167,310.5 389.167,306.5 390.5,302.5C 392.657,304.792 394.824,307.125 397,309.5C 397.497,306.854 397.664,304.187 397.5,301.5 Z"/></g>
<g><path style="opacity:1" fill="#f4ece7" d="M 112.5,298.5 C 114.607,299.468 116.941,299.802 119.5,299.5C 126.726,300.822 134.059,301.489 141.5,301.5C 143.607,302.468 145.941,302.802 148.5,302.5C 149.123,309.255 148.456,315.588 146.5,321.5C 137.453,320.778 128.453,319.778 119.5,318.5C 118.5,318.5 117.5,318.5 116.5,318.5C 108.349,317.121 100.015,316.121 91.5,315.5C 91.5,309.5 91.5,303.5 91.5,297.5C 98.5036,297.773 105.504,298.106 112.5,298.5 Z"/></g>
<g><path style="opacity:1" fill="#998998" d="M 119.5,306.5 C 122.083,308.058 123.249,310.392 123,313.5C 121.333,312.167 119.667,312.167 118,313.5C 118.157,311.169 118.657,308.836 119.5,306.5 Z"/></g>
<g><path style="opacity:1" fill="#806e80" d="M 110.5,305.5 C 112.193,306.475 113.693,307.808 115,309.5C 115.333,308.5 115.667,307.5 116,306.5C 116.907,313.273 115.574,313.939 112,308.5C 111.667,309.833 111.333,311.167 111,312.5C 110.503,310.19 110.337,307.857 110.5,305.5 Z"/></g>
<g><path style="opacity:1" fill="#8a7989" d="M 103.5,309.5 C 102.201,307.847 102.534,306.347 104.5,305C 109.191,304.883 110.524,307.049 108.5,311.5C 105.799,313.159 104.132,312.492 103.5,309.5 Z"/></g>
<g><path style="opacity:1" fill="#f1eae8" d="M 103.5,309.5 C 103.999,306.611 105.499,305.944 108,307.5C 108.483,308.448 108.649,309.448 108.5,310.5C 106.708,310.634 105.042,310.301 103.5,309.5 Z"/></g>
<g><path style="opacity:1" fill="#766477" d="M 95.5,304.5 C 101.158,303.679 102.825,305.846 100.5,311C 98.8659,311.494 97.1992,311.66 95.5,311.5C 95.5,309.167 95.5,306.833 95.5,304.5 Z"/></g>
<g><path style="opacity:1" fill="#e9e2e1" d="M 96.5,305.5 C 100.161,305.35 101.161,306.85 99.5,310C 98.552,310.483 97.552,310.649 96.5,310.5C 96.5,308.833 96.5,307.167 96.5,305.5 Z"/></g>
<g><path style="opacity:1" fill="#a0929d" d="M 133.5,308.5 C 133.5,310.167 133.5,311.833 133.5,313.5C 132.213,312.232 131.213,312.565 130.5,314.5C 129.167,312.167 129.167,309.833 130.5,307.5C 131.213,309.435 132.213,309.768 133.5,308.5 Z"/></g>
<g><path style="opacity:1" fill="#462949" d="M 158.5,307.5 C 159.947,312.614 163.28,315.614 168.5,316.5C 171.04,323.384 171.707,330.384 170.5,337.5C 167.386,336.909 164.886,335.242 163,332.5C 157.568,325.637 153.735,317.97 151.5,309.5C 151.611,308.883 151.944,308.383 152.5,308C 154.473,307.505 156.473,307.338 158.5,307.5 Z"/></g>
<g><path style="opacity:1" fill="#685567" d="M 123.5,307.5 C 124.946,306.387 126.613,306.22 128.5,307C 126.901,308.786 126.067,310.953 126,313.5C 125.998,310.949 125.164,308.949 123.5,307.5 Z"/></g>
<g><path style="opacity:1" fill="#56405c" d="M 352.5,304.5 C 354.335,305.122 355.502,306.456 356,308.5C 357.314,311.089 357.981,313.756 358,316.5C 354.667,312.5 351.333,312.5 348,316.5C 348.612,312.256 350.112,308.256 352.5,304.5 Z"/></g>
<g><path style="opacity:1" fill="#ddd3d6" d="M 352.5,306.5 C 353.725,307.937 354.725,309.604 355.5,311.5C 353.833,312.833 352.167,312.833 350.5,311.5C 351.456,309.925 352.123,308.258 352.5,306.5 Z"/></g>
<g><path style="opacity:1" fill="#a393a3" d="M 369.5,303.5 C 370.5,303.5 371.5,303.5 372.5,303.5C 372.5,307.5 372.5,311.5 372.5,315.5C 371.5,315.5 370.5,315.5 369.5,315.5C 369.5,311.5 369.5,307.5 369.5,303.5 Z"/></g>
<g><path style="opacity:1" fill="#f0e9e7" d="M 133.5,308.5 C 136.91,308.384 138.244,310.05 137.5,313.5C 136.167,313.5 134.833,313.5 133.5,313.5C 133.5,311.833 133.5,310.167 133.5,308.5 Z"/></g>
<g><path style="opacity:1" fill="#614d62" d="M 143.5,312.5 C 141.908,311.398 141.075,312.065 141,314.5C 140.333,312.5 140.333,310.5 141,308.5C 142.481,309.471 143.315,310.804 143.5,312.5 Z"/></g>
<g><path style="opacity:1" fill="#5d4863" d="M 377.5,303.5 C 386.487,302.665 388.82,306.165 384.5,314C 379.023,316.595 375.689,314.928 374.5,309C 374.863,306.808 375.863,304.974 377.5,303.5 Z"/></g>
<g><path style="opacity:1" fill="#eee8e6" d="M 378.5,304.5 C 385.225,304.204 386.891,306.871 383.5,312.5C 376.409,313.531 374.742,310.864 378.5,304.5 Z"/></g>
<g><path style="opacity:1" fill="#897787" d="M 133.5,308.5 C 136.586,306.798 138.586,307.798 139.5,311.5C 138.08,314.341 136.08,315.008 133.5,313.5C 134.833,313.5 136.167,313.5 137.5,313.5C 138.244,310.05 136.91,308.384 133.5,308.5 Z"/></g>
<g><path style="opacity:1" fill="#594261" d="M 307.5,306.5 C 311.516,305.9 315.016,306.9 318,309.5C 318.663,316.958 315.163,319.958 307.5,318.5C 307.5,314.5 307.5,310.5 307.5,306.5 Z"/></g>
<g><path style="opacity:1" fill="#ece6e4" d="M 308.5,308.5 C 315.659,306.82 317.993,309.32 315.5,316C 313.323,317.202 310.989,317.702 308.5,317.5C 308.5,314.5 308.5,311.5 308.5,308.5 Z"/></g>
<g><path style="opacity:1" fill="#533d5a" d="M 335.5,305.5 C 338.5,307.668 341,310.334 343,313.5C 343.182,310.774 343.682,308.107 344.5,305.5C 347.009,319.134 344.509,320.134 337,308.5C 336.667,311.5 336.333,314.5 336,317.5C 335.501,313.514 335.334,309.514 335.5,305.5 Z"/></g>
<g><path style="opacity:1" fill="#f5d0bc" d="M 404.5,293.5 C 405.494,302.652 405.827,311.985 405.5,321.5C 404.5,321.5 403.5,321.5 402.5,321.5C 404.431,312.43 405.097,303.097 404.5,293.5 Z"/></g>
<g><path style="opacity:1" fill="#7c697c" d="M 143.5,312.5 C 144.29,311.391 144.79,310.058 145,308.5C 145.667,310.833 145.667,313.167 145,315.5C 143.961,314.756 143.461,313.756 143.5,312.5 Z"/></g>
<g><path style="opacity:1" fill="#e88c6f" d="M 173.5,310.5 C 174.167,310.5 174.833,310.5 175.5,310.5C 177.23,311.026 178.564,312.026 179.5,313.5C 179.174,322.017 179.507,330.35 180.5,338.5C 172.338,340.061 164.004,341.394 155.5,342.5C 155.5,336.833 155.5,331.167 155.5,325.5C 158.416,331.252 162.583,335.918 168,339.5C 169.301,339.361 170.134,338.695 170.5,337.5C 171.707,330.384 171.04,323.384 168.5,316.5C 170.167,314.5 171.833,312.5 173.5,310.5 Z"/></g>
<g><path style="opacity:1" fill="#f3a17a" d="M 149.5,313.5 C 151.678,317.338 153.678,321.338 155.5,325.5C 155.5,331.167 155.5,336.833 155.5,342.5C 143.411,341.929 131.411,340.596 119.5,338.5C 119.5,331.833 119.5,325.167 119.5,318.5C 128.453,319.778 137.453,320.778 146.5,321.5C 147.209,322.404 148.209,322.737 149.5,322.5C 149.5,319.5 149.5,316.5 149.5,313.5 Z"/></g>
<g><path style="opacity:1" fill="#c67164" d="M 186.5,312.5 C 186.5,320.833 186.5,329.167 186.5,337.5C 184.735,338.461 182.735,338.795 180.5,338.5C 179.507,330.35 179.174,322.017 179.5,313.5C 181.17,313.751 182.67,314.418 184,315.5C 184.852,314.429 185.685,313.429 186.5,312.5 Z"/></g>
<g><path style="opacity:1" fill="#543f5c" d="M 324.5,305.5 C 332.972,306.352 334.639,310.185 329.5,317C 322,318.833 319.167,316 321,308.5C 322.145,307.364 323.312,306.364 324.5,305.5 Z"/></g>
<g><path style="opacity:1" fill="#ede7e5" d="M 323.5,307.5 C 329.487,306.977 331.487,309.477 329.5,315C 321.839,317.168 319.839,314.668 323.5,307.5 Z"/></g>
<g><path style="opacity:0.999" fill="#e3e7ea" d="M 420.5,294.5 C 421.167,308.833 421.833,323.167 422.5,337.5C 427.473,338.164 432.473,338.497 437.5,338.5C 437.5,340.5 437.5,342.5 437.5,344.5C 450.174,345.713 462.84,345.713 475.5,344.5C 475.5,343.167 475.5,341.833 475.5,340.5C 485.67,339.75 495.67,338.75 505.5,337.5C 506.167,337.5 506.833,337.5 507.5,337.5C 518.484,336.419 529.484,335.419 540.5,334.5C 540.5,326.167 540.5,317.833 540.5,309.5C 541.492,316.648 541.825,323.981 541.5,331.5C 548.569,332.356 555.236,334.523 561.5,338C 564.352,340.153 564.852,342.653 563,345.5C 549.371,352.534 534.871,356.7 519.5,358C 493.281,361.789 466.948,364.455 440.5,366C 341.096,371.401 241.763,370.401 142.5,363C 119.759,360.989 97.2588,357.489 75,352.5C 69.2696,350.966 63.9363,348.632 59,345.5C 57.6206,341.525 58.7873,338.691 62.5,337C 69.7871,333.429 77.4538,331.262 85.5,330.5C 85.1795,325.305 85.5128,320.305 86.5,315.5C 86.5,322.167 86.5,328.833 86.5,335.5C 95.8359,336.5 105.169,337.5 114.5,338.5C 116.167,338.5 117.833,338.5 119.5,338.5C 131.411,340.596 143.411,341.929 155.5,342.5C 164.004,341.394 172.338,340.061 180.5,338.5C 182.735,338.795 184.735,338.461 186.5,337.5C 192.688,337.243 198.688,336.577 204.5,335.5C 205.49,329.69 205.823,323.69 205.5,317.5C 206.833,317.5 208.167,317.5 209.5,317.5C 209.5,328.167 209.5,338.833 209.5,349.5C 233.758,353.982 258.092,357.982 282.5,361.5C 326.839,358.903 371.172,356.237 415.5,353.5C 415.5,350.5 415.5,347.5 415.5,344.5C 417.453,338.926 418.12,332.926 417.5,326.5C 418.739,315.872 419.739,305.206 420.5,294.5 Z"/></g>
<g><path style="opacity:1" fill="#e0866c" d="M 116.5,318.5 C 117.5,318.5 118.5,318.5 119.5,318.5C 119.5,325.167 119.5,331.833 119.5,338.5C 117.833,338.5 116.167,338.5 114.5,338.5C 112.601,332.118 111.934,325.451 112.5,318.5C 113.833,318.5 115.167,318.5 116.5,318.5 Z"/></g>
<g><path style="opacity:1" fill="#664464" d="M 149.5,309.5 C 150.167,309.5 150.833,309.5 151.5,309.5C 153.735,317.97 157.568,325.637 163,332.5C 164.886,335.242 167.386,336.909 170.5,337.5C 170.134,338.695 169.301,339.361 168,339.5C 162.583,335.918 158.416,331.252 155.5,325.5C 153.678,321.338 151.678,317.338 149.5,313.5C 149.5,312.167 149.5,310.833 149.5,309.5 Z"/></g>
<g><path style="opacity:1" fill="#492d50" d="M 457.5,330.5 C 457.833,330.5 458.167,330.5 458.5,330.5C 457.443,336.407 458.276,336.74 461,331.5C 461.353,332.672 461.187,333.838 460.5,335C 460.833,335.5 461.167,336 461.5,336.5C 462.243,335.092 463.077,333.759 464,332.5C 463.591,334.225 463.758,335.892 464.5,337.5C 465.521,336.099 466.521,334.765 467.5,333.5C 468.605,334.6 469.938,335.267 471.5,335.5C 472.925,336.922 473.925,338.589 474.5,340.5C 473.048,341.302 471.382,341.802 469.5,342C 459.172,342.5 448.839,342.666 438.5,342.5C 438.5,341.167 438.5,339.833 438.5,338.5C 438.5,336.167 438.5,333.833 438.5,331.5C 444.744,330.542 451.077,330.209 457.5,330.5 Z"/></g>
<g><path style="opacity:1" fill="#8f7687" d="M 467.5,333.5 C 466.521,334.765 465.521,336.099 464.5,337.5C 463.758,335.892 463.591,334.225 464,332.5C 463.077,333.759 462.243,335.092 461.5,336.5C 461.167,336 460.833,335.5 460.5,335C 461.187,333.838 461.353,332.672 461,331.5C 458.276,336.74 457.443,336.407 458.5,330.5C 458.56,329.957 458.893,329.624 459.5,329.5C 462.57,330.284 465.237,331.617 467.5,333.5 Z"/></g>
<g><path style="opacity:1" fill="#7c6980" d="M 417.5,326.5 C 418.12,332.926 417.453,338.926 415.5,344.5C 415.5,340.167 415.5,335.833 415.5,331.5C 416.167,329.833 416.833,328.167 417.5,326.5 Z"/></g>
<g><path style="opacity:1" fill="#918396" d="M 437.5,338.5 C 437.833,338.5 438.167,338.5 438.5,338.5C 438.5,339.833 438.5,341.167 438.5,342.5C 448.839,342.666 459.172,342.5 469.5,342C 471.382,341.802 473.048,341.302 474.5,340.5C 474.833,340.5 475.167,340.5 475.5,340.5C 475.5,341.833 475.5,343.167 475.5,344.5C 462.84,345.713 450.174,345.713 437.5,344.5C 437.5,342.5 437.5,340.5 437.5,338.5 Z"/></g>
</svg>
