<svg id="Layer_1" data-name="Layer 1" xmlns="http://www.w3.org/2000/svg" viewBox="0 0 122.88 116.06"><title>human</title><path d="M0,116.06C3.81,84.35,2.87,87.21,40.09,77.24c4.77,21.43,41.49,21.59,42.21,0C121.73,87.81,120,84,122.88,116.06ZM28,22c16.1-19.9,34.67-30.73,48.61-13,16.8.88,23.53,25.55,10.14,36.79,0,.22,0,.44-.08.66a7.31,7.31,0,0,1,1.55-.3,4.86,4.86,0,0,1,2.74.52,3.87,3.87,0,0,1,1.91,2.31c.7,2.19-1.65,11.62-3.51,13.09a3.89,3.89,0,0,1-2.85.69L86,62.64c-.13,6.62-3.37,8.69-7.61,12.67-.55.52-1.12,1-1.63,1.55C72.42,81,67.73,83,63,83s-9.71-2.07-14.22-6.08c-.68-.61-1.14-1-1.59-1.39C43,72,39.52,69.94,38.86,62.66A5,5,0,0,1,36.05,62c-3.47-2-4.72-11.25-3.53-14.13.87-2.42,2.2-3.21,4-3.16C32.26,41.92,39.15,25.33,28,22ZM39.3,48.66c-6.82-2.38-4.58,12.13.54,10.6a1.5,1.5,0,0,1,.47-.08A1.59,1.59,0,0,1,42,60.73c.17,7.24,3.38,9,7.28,12.38.6.52,1.23,1,1.63,1.42,3.93,3.49,8,5.29,12.1,5.29s7.87-1.72,11.53-5.26c4.94-4.77,8.84-6.41,8.19-14.18a1.62,1.62,0,0,1,.26-1,1.6,1.6,0,0,1,2.22-.45c4.23,2.8,6-9.85,3.32-9.64-1.85.14-2.91,1.7-4.09,1.5a1.6,1.6,0,0,1-1.31-1.84c1.5-8.79.82-14.51-1.06-18.41a15.66,15.66,0,0,0-7.09-7c-10.49,8-20.09,4-28.17,10.74-3.42,2.85-5.2,7.06-3.91,13a1.6,1.6,0,0,1,0,1c-.63,1.73-2.35.83-3.51.42Z"/></svg>