<?xml version="1.0" encoding="UTF-8"?>
<!DOCTYPE svg PUBLIC "-//W3C//DTD SVG 1.1//EN" "http://www.w3.org/Graphics/SVG/1.1/DTD/svg11.dtd">
<svg xmlns="http://www.w3.org/2000/svg" version="1.1" width="50px" height="50px" style="shape-rendering:geometricPrecision; text-rendering:geometricPrecision; image-rendering:optimizeQuality; fill-rule:evenodd; clip-rule:evenodd" xmlns:xlink="http://www.w3.org/1999/xlink">
<g><path style="opacity:0.978" fill="#002e76" d="M 22.5,0.5 C 25.2257,0.263856 27.559,1.09719 29.5,3C 35.5,7.66667 41.5,12.3333 47.5,17C 48.3366,18.0113 48.67,19.1779 48.5,20.5C 47.5,20.5 46.5,20.5 45.5,20.5C 45.5,29.1667 45.5,37.8333 45.5,46.5C 31.5,46.5 17.5,46.5 3.5,46.5C 3.5,37.8333 3.5,29.1667 3.5,20.5C 2.5,20.5 1.5,20.5 0.5,20.5C 0.330034,19.1779 0.663368,18.0113 1.5,17C 8.93231,11.9626 15.9323,6.46264 22.5,0.5 Z M 21.5,15.5 C 23.3566,18.0176 25.1899,18.0176 27,15.5C 28.0217,16.354 28.8551,17.354 29.5,18.5C 28.1667,20.5 26.5,22.1667 24.5,23.5C 20.1508,21.6361 19.1508,18.9694 21.5,15.5 Z M 34.5,28.5 C 35.2891,28.7828 35.9558,29.2828 36.5,30C 32.2167,36.474 26.2167,39.1407 18.5,38C 15.6368,41.237 13.6368,40.5703 12.5,36C 15.5699,32.7509 19.2366,30.5843 23.5,29.5C 25.0666,29.477 26.3999,29.977 27.5,31C 25.9411,31.9799 24.2744,32.8133 22.5,33.5C 28.0439,35.6369 32.0439,33.9702 34.5,28.5 Z"/></g>
</svg>
