<?xml version="1.0" standalone="no"?>
<!DOCTYPE svg PUBLIC "-//W3C//DTD SVG 20010904//EN"
 "http://www.w3.org/TR/2001/REC-SVG-20010904/DTD/svg10.dtd">
<svg version="1.0" xmlns="http://www.w3.org/2000/svg"
 width="16.000000pt" height="16.000000pt" viewBox="0 0 16.000000 16.000000"
 preserveAspectRatio="xMidYMid meet">

<g transform="translate(0.000000,16.000000) scale(0.100000,-0.100000)"
fill="#000000" stroke="none">
<path d="M70 105 c-10 -13 -9 -15 9 -15 12 0 19 -4 16 -10 -3 -5 -1 -10 5 -10
6 0 8 -5 5 -10 -4 -6 -16 -8 -28 -4 -18 5 -20 4 -9 -7 9 -10 17 -11 30 -3 16
10 27 54 13 52 -20 -2 -31 3 -26 12 9 15 -1 12 -15 -5z"/>
<path d="M19 23 c-13 -16 -12 -17 4 -4 9 7 17 15 17 17 0 8 -8 3 -21 -13z"/>
</g>
</svg>
